<svg width="339" height="383" viewBox="0 0 339 383" fill="none" xmlns="http://www.w3.org/2000/svg">
<path d="M84.1205 28.0177L81.7715 25.2379C81.1271 25.4032 80.4676 25.4879 79.793 25.492C78.3557 25.5007 77.0337 25.1715 75.8269 24.5041C74.6201 23.8368 73.6612 22.9113 72.9499 21.7276C72.2386 20.5293 71.8784 19.1748 71.8692 17.6641C71.86 16.1681 72.2039 14.824 72.9006 13.6318C73.5973 12.4248 74.5449 11.4804 75.7434 10.7984C76.9419 10.1164 78.2599 9.77104 79.6972 9.76228C81.1491 9.75344 82.4712 10.0827 83.6633 10.7501C84.87 11.4175 85.8217 12.3503 86.5184 13.5488C87.2296 14.7325 87.5898 16.0723 87.5989 17.5683C87.6072 18.9323 87.3214 20.1807 86.7417 21.3136C86.1765 22.4317 85.3974 23.3458 84.4043 24.0559L87.9484 27.9944L84.1205 28.0177ZM75.0371 17.6448C75.0434 18.6715 75.2468 19.5722 75.6476 20.3472C76.0483 21.1221 76.602 21.72 77.3085 22.1411C78.0297 22.5473 78.8523 22.7477 79.7762 22.742C80.7002 22.7364 81.513 22.5261 82.2144 22.1112C82.9158 21.6816 83.4622 21.0769 83.8534 20.2972C84.2447 19.5174 84.4372 18.6142 84.4309 17.5876C84.4247 16.5609 84.2212 15.6675 83.8206 14.9073C83.4199 14.1323 82.8662 13.5417 82.1598 13.1353C81.4533 12.729 80.638 12.5286 79.7141 12.5342C78.7901 12.5399 77.97 12.7502 77.2538 13.1652C76.5524 13.5802 76.006 14.1775 75.6147 14.9573C75.2234 15.7223 75.0308 16.6182 75.0371 17.6448ZM103.172 13.0073L103.246 25.1951L100.144 25.214L100.135 23.674C99.7419 24.2044 99.2238 24.6256 98.5804 24.9375C97.9515 25.2347 97.2631 25.3856 96.5151 25.3901C95.5618 25.3959 94.7173 25.2031 93.9815 24.8115C93.2457 24.4053 92.6628 23.8149 92.2327 23.0402C91.8172 22.2507 91.6062 21.3133 91.5996 20.228L91.556 13.0781L94.6359 13.0593L94.6768 19.7692C94.6827 20.7372 94.9293 21.4837 95.4165 22.0087C95.9036 22.5191 96.5651 22.7718 97.4011 22.7667C98.2518 22.7615 98.9175 22.5008 99.3984 21.9845C99.8792 21.4535 100.117 20.7041 100.111 19.7361L100.07 13.0262L103.172 13.0073ZM107.215 19.0328C107.208 17.8008 107.443 16.7067 107.921 15.7504C108.414 14.7941 109.077 14.0567 109.91 13.5383C110.758 13.0198 111.702 12.7574 112.743 12.751C113.653 12.7455 114.446 12.924 115.123 13.2865C115.814 13.649 116.367 14.1076 116.781 14.6624L116.77 12.9245L119.872 12.9056L119.947 25.0934L116.845 25.1122L116.834 23.3303C116.441 23.9047 115.894 24.3847 115.193 24.7703C114.505 25.1412 113.707 25.3294 112.798 25.3349C111.771 25.3412 110.831 25.0829 109.977 24.5601C109.138 24.0372 108.466 23.3006 107.962 22.3503C107.472 21.3853 107.223 20.2794 107.215 19.0328ZM116.808 19.0184C116.803 18.2704 116.652 17.6333 116.356 17.1071C116.059 16.5662 115.661 16.158 115.16 15.8823C114.66 15.592 114.124 15.4486 113.552 15.4521C112.98 15.4556 112.453 15.5982 111.97 15.8798C111.488 16.1614 111.095 16.5745 110.79 17.119C110.5 17.6488 110.357 18.2803 110.361 19.0136C110.366 19.747 110.516 20.3914 110.813 20.9469C111.125 21.4877 111.523 21.9033 112.009 22.1937C112.509 22.4839 113.038 22.6274 113.595 22.624C114.167 22.6205 114.702 22.4779 115.199 22.1962C115.696 21.8999 116.089 21.4868 116.379 20.957C116.669 20.4126 116.812 19.7663 116.808 19.0184ZM127.695 8.76584L127.795 25.0455L124.715 25.0643L124.616 8.7846L127.695 8.76584ZM134.076 11.367C133.534 11.3703 133.078 11.2044 132.709 10.8693C132.355 10.5195 132.177 10.0879 132.174 9.57457C132.17 9.06125 132.344 8.63485 132.694 8.29538C133.058 7.94115 133.512 7.76238 134.054 7.75908C134.597 7.75577 135.046 7.92904 135.4 8.27889C135.768 8.61398 135.954 9.03819 135.957 9.55152C135.961 10.0648 135.78 10.4986 135.415 10.8528C135.065 11.1923 134.619 11.3637 134.076 11.367ZM135.603 12.8097L135.678 24.9975L132.598 25.0163L132.523 12.8285L135.603 12.8097ZM146.01 15.2764L143.876 15.2894L143.934 24.9472L140.811 24.9662L140.752 15.3084L139.366 15.3169L139.35 12.7869L140.736 12.7785L140.733 12.1625C140.723 10.6665 141.142 9.56393 141.988 8.85476C142.835 8.14559 144.116 7.80778 145.832 7.84132L145.848 10.4373C145.1 10.4272 144.58 10.555 144.288 10.8208C143.997 11.0866 143.853 11.5641 143.857 12.2534L143.86 12.7594L145.994 12.7464L146.01 15.2764ZM151.303 11.2621C150.761 11.2654 150.305 11.0995 149.936 10.7644C149.582 10.4145 149.403 9.98294 149.4 9.46962C149.397 8.95629 149.571 8.5299 149.92 8.19042C150.285 7.8362 150.739 7.65743 151.281 7.65412C151.824 7.65082 152.272 7.82409 152.626 8.17394C152.995 8.50903 153.181 8.93324 153.184 9.44656C153.187 9.95989 153.007 10.3937 152.642 10.7479C152.292 11.0874 151.846 11.2588 151.303 11.2621ZM152.83 12.7048L152.904 24.8926L149.824 24.9113L149.75 12.7235L152.83 12.7048ZM156.878 18.7742C156.87 17.5129 157.12 16.4114 157.628 15.4696C158.136 14.5132 158.842 13.7755 159.749 13.2566C160.655 12.7231 161.694 12.4528 162.868 12.4456C164.378 12.4364 165.627 12.8102 166.615 13.5668C167.616 14.3087 168.29 15.3606 168.636 16.7226L165.314 16.7428C165.135 16.2159 164.832 15.8071 164.404 15.5163C163.992 15.2108 163.478 15.06 162.862 15.0637C161.982 15.0691 161.287 15.396 160.778 16.0444C160.268 16.6782 160.017 17.5818 160.024 18.7551C160.031 19.9137 160.293 20.8141 160.811 21.4563C161.328 22.0839 162.026 22.3949 162.906 22.3896C164.153 22.382 164.963 21.8197 165.338 20.7027L168.66 20.6825C168.331 22.0045 167.67 23.0572 166.677 23.8406C165.685 24.624 164.44 25.0203 162.944 25.0294C161.771 25.0365 160.728 24.7862 159.816 24.2784C158.903 23.756 158.187 23.027 157.668 22.0915C157.149 21.1413 156.886 20.0355 156.878 18.7742ZM171.872 18.6389C171.864 17.4069 172.1 16.3128 172.578 15.3565C173.071 14.4002 173.734 13.6628 174.567 13.1444C175.414 12.6259 176.358 12.3634 177.4 12.3571C178.309 12.3515 179.102 12.5301 179.779 12.8926C180.471 13.2551 181.023 13.7137 181.437 14.2685L181.427 12.5306L184.529 12.5117L184.603 24.6994L181.501 24.7183L181.49 22.9364C181.098 23.5108 180.551 23.9908 179.849 24.3764C179.162 24.7472 178.364 24.9354 177.454 24.941C176.428 24.9472 175.488 24.689 174.634 24.1662C173.794 23.6433 173.123 22.9067 172.618 21.9564C172.128 20.9914 171.88 19.8855 171.872 18.6389ZM181.464 18.6244C181.459 17.8765 181.309 17.2394 181.012 16.7132C180.716 16.1723 180.317 15.764 179.817 15.4884C179.316 15.1981 178.78 15.0547 178.208 15.0582C177.636 15.0617 177.109 15.2042 176.627 15.4859C176.145 15.7675 175.751 16.1805 175.446 16.7251C175.156 17.2548 175.013 17.8864 175.018 18.6197C175.022 19.353 175.173 19.9975 175.47 20.553C175.781 21.0938 176.18 21.5094 176.665 21.7997C177.166 22.09 177.695 22.2335 178.252 22.2301C178.824 22.2266 179.358 22.084 179.855 21.8023C180.352 21.5059 180.746 21.0929 181.036 20.5631C181.326 20.0186 181.469 19.3724 181.464 18.6244ZM194.57 22.1967C195.817 22.1891 196.627 21.6268 197.002 20.5098L200.324 20.4896C200.023 21.6794 199.457 22.6509 198.626 23.404C197.809 24.157 196.778 24.6106 195.532 24.7648L195.537 25.6228C196.344 25.6179 197.02 25.8191 197.565 26.2265C198.125 26.6338 198.407 27.226 198.412 28.0034C198.416 28.7954 198.134 29.4057 197.565 29.8346C197.01 30.2633 196.322 30.4801 195.501 30.4851L192.377 30.5042L192.366 28.7002L194.984 28.6843C195.336 28.6821 195.599 28.6292 195.775 28.5254C195.965 28.4216 196.059 28.2377 196.057 27.9737C196.056 27.7097 195.959 27.527 195.768 27.4255C195.592 27.3385 195.327 27.2961 194.975 27.2983L193.611 27.3066L193.596 24.7766C192.598 24.6361 191.716 24.2968 190.95 23.7587C190.198 23.206 189.607 22.4909 189.177 21.6135C188.76 20.7214 188.549 19.7106 188.542 18.5813C188.534 17.32 188.784 16.2185 189.292 15.2767C189.799 14.3202 190.506 13.5826 191.412 13.0637C192.319 12.5302 193.358 12.2599 194.532 12.2527C196.042 12.2435 197.291 12.6172 198.279 13.3739C199.28 14.1158 199.954 15.1677 200.3 16.5296L196.978 16.5499C196.799 16.023 196.495 15.6141 196.068 15.3234C195.656 15.0179 195.142 14.867 194.526 14.8708C193.646 14.8762 192.951 15.2031 192.441 15.8515C191.932 16.4853 191.681 17.3888 191.688 18.5622C191.695 19.7208 191.957 20.6212 192.474 21.2634C192.992 21.8909 193.69 22.202 194.57 22.1967ZM203.536 18.446C203.528 17.214 203.764 16.1199 204.242 15.1636C204.735 14.2073 205.398 13.4699 206.23 12.9515C207.078 12.4329 208.022 12.1705 209.064 12.1642C209.973 12.1586 210.766 12.3371 211.443 12.6997C212.135 13.0621 212.687 13.5208 213.101 14.0756L213.091 12.3376L216.193 12.3187L216.267 24.5065L213.165 24.5254L213.154 22.7434C212.762 23.3179 212.215 23.7979 211.513 24.1835C210.826 24.5543 210.028 24.7425 209.118 24.7481C208.092 24.7543 207.151 24.4961 206.298 23.9732C205.458 23.4503 204.787 22.7138 204.282 21.7635C203.792 20.7985 203.543 19.6926 203.536 18.446ZM213.128 18.4315C213.123 17.6835 212.973 17.0464 212.676 16.5202C212.38 15.9794 211.981 15.5711 211.481 15.2955C210.98 15.0052 210.444 14.8618 209.872 14.8653C209.3 14.8688 208.773 15.0113 208.291 15.2929C207.808 15.5746 207.415 15.9876 207.11 16.5322C206.82 17.0619 206.677 17.6935 206.682 18.4268C206.686 19.1601 206.837 19.8045 207.134 20.3601C207.445 20.9009 207.843 21.3164 208.329 21.6068C208.83 21.8971 209.359 22.0406 209.916 22.0372C210.488 22.0337 211.022 21.8911 211.519 21.6094C212.016 21.313 212.41 20.9 212.7 20.3702C212.99 19.8257 213.133 19.1795 213.128 18.4315ZM206.308 11.2129C206.434 10.2442 206.73 9.52367 207.197 9.05149C207.678 8.56455 208.285 8.31885 209.018 8.31438C209.326 8.3125 209.598 8.36218 209.833 8.46342C210.068 8.54999 210.333 8.68037 210.628 8.85458C211.069 9.13057 211.437 9.26766 211.73 9.26588C212.273 9.26257 212.586 8.94532 212.67 8.31413L214.32 8.30408C214.194 9.27286 213.891 10.0007 213.41 10.4877C212.943 10.9599 212.343 11.1982 211.61 11.2026C211.302 11.2045 211.03 11.1622 210.795 11.0756C210.56 10.9744 210.295 10.8366 210.001 10.6624C209.573 10.3717 209.206 10.2273 208.898 10.2291C208.355 10.2325 208.035 10.5571 207.936 11.203L206.308 11.2129ZM226.448 24.6425C225.275 24.6496 224.217 24.3994 223.276 23.8918C222.334 23.3695 221.589 22.6334 221.04 21.6834C220.506 20.7333 220.236 19.6349 220.228 18.3883C220.22 17.1416 220.485 16.04 221.022 15.0834C221.573 14.1267 222.324 13.3887 223.274 12.8696C224.225 12.3358 225.286 12.0653 226.46 12.0582C227.633 12.051 228.698 12.3086 229.654 12.8307C230.611 13.3383 231.363 14.067 231.912 15.017C232.475 15.9669 232.76 17.0652 232.768 18.3119C232.775 19.5585 232.496 20.6602 231.93 21.617C231.378 22.5738 230.62 23.3191 229.655 23.8529C228.705 24.3721 227.636 24.6353 226.448 24.6425ZM226.432 21.9585C226.989 21.9551 227.509 21.82 227.991 21.553C228.488 21.2713 228.882 20.8583 229.172 20.3138C229.462 19.7694 229.605 19.1085 229.6 18.3312C229.593 17.1725 229.279 16.2871 228.66 15.6749C228.054 15.0479 227.312 14.737 226.432 14.7424C225.552 14.7478 224.813 15.0676 224.216 15.7019C223.633 16.3215 223.345 17.2106 223.352 18.3692C223.359 19.5279 223.65 20.4208 224.226 21.048C224.817 21.6604 225.552 21.9639 226.432 21.9585Z" fill="white"/>
<path d="M117.075 72.8266L117.095 76.0905L120.935 76.0671L120.944 77.5551L117.104 77.5785L117.125 80.9864L121.444 80.9601L121.454 82.4481L115.31 82.4855L115.242 71.3497L121.386 71.3123L121.395 72.8003L117.075 72.8266ZM123.065 77.9902C123.06 77.1049 123.236 76.3198 123.595 75.6349C123.964 74.95 124.462 74.4189 125.089 74.0418C125.727 73.6539 126.435 73.4576 127.213 73.4528C127.789 73.4493 128.356 73.5739 128.912 73.8265C129.479 74.0684 129.929 74.3963 130.262 74.8103L130.236 70.5544L132.076 70.5432L132.148 82.3829L130.308 82.3941L130.3 81.0662C130.004 81.4946 129.59 81.8492 129.058 82.1298C128.537 82.4103 127.936 82.5526 127.253 82.5568C126.485 82.5614 125.78 82.3737 125.137 81.9936C124.506 81.6028 124.001 81.0619 123.624 80.3708C123.257 79.6691 123.07 78.8755 123.065 77.9902ZM130.281 77.9782C130.277 77.3702 130.146 76.843 129.887 76.3966C129.639 75.9501 129.312 75.6108 128.905 75.3786C128.498 75.1464 128.06 75.0317 127.591 75.0346C127.122 75.0374 126.685 75.1574 126.281 75.3945C125.877 75.621 125.549 75.959 125.295 76.4086C125.053 76.8474 124.933 77.3708 124.937 77.9788C124.941 78.5868 125.067 79.1193 125.315 79.5765C125.574 80.0336 125.906 80.3836 126.313 80.6264C126.731 80.8586 127.169 80.9732 127.627 80.9704C128.097 80.9676 128.533 80.8476 128.937 80.6105C129.341 80.3733 129.664 80.03 129.907 79.5805C130.16 79.1203 130.285 78.5862 130.281 77.9782ZM142.474 73.5039L142.528 82.3197L140.704 82.3308L140.697 81.2908C140.411 81.6552 140.035 81.9455 139.566 82.1617C139.109 82.3672 138.619 82.4715 138.096 82.4747C137.403 82.4789 136.778 82.3387 136.222 82.0541C135.676 81.7694 135.241 81.3454 134.918 80.782C134.605 80.2186 134.446 79.5369 134.442 78.7369L134.41 73.553L136.218 73.542L136.248 78.4539C136.253 79.2432 136.454 79.85 136.851 80.2742C137.248 80.6878 137.788 80.8925 138.471 80.8884C139.153 80.8842 139.691 80.6729 140.083 80.2545C140.486 79.8254 140.685 79.2162 140.68 78.4269L140.65 73.515L142.474 73.5039ZM144.299 77.8928C144.294 76.9862 144.47 76.1904 144.829 75.5055C145.198 74.81 145.707 74.2735 146.355 73.8962C147.003 73.5189 147.749 73.3277 148.591 73.3226C149.658 73.3161 150.54 73.5667 151.236 74.0745C151.943 74.5715 152.422 75.2886 152.673 76.2258L150.705 76.2378C150.543 75.8014 150.284 75.4616 149.931 75.2185C149.578 74.9753 149.134 74.8553 148.601 74.8586C147.854 74.8631 147.258 75.1334 146.814 75.6695C146.38 76.1948 146.165 76.9321 146.171 77.8814C146.177 78.8307 146.4 79.5707 146.841 80.1014C147.292 80.632 147.891 80.895 148.638 80.8904C149.694 80.884 150.389 80.4158 150.725 79.4857L152.693 79.4737C152.442 80.3713 151.967 81.0888 151.266 81.6264C150.565 82.1534 149.692 82.42 148.647 82.4264C147.804 82.4315 147.056 82.2494 146.404 81.8801C145.751 81.5 145.235 80.9698 144.858 80.2895C144.491 79.5983 144.305 78.7995 144.299 77.8928ZM153.893 77.8024C153.887 76.9171 154.064 76.132 154.422 75.4471C154.791 74.7622 155.29 74.2311 155.917 73.854C156.554 73.4661 157.257 73.2698 158.025 73.2651C158.718 73.2609 159.322 73.3959 159.836 73.6701C160.36 73.9336 160.778 74.267 161.09 74.6705L161.082 73.3905L162.922 73.3793L162.976 82.1951L161.136 82.2063L161.128 80.8943C160.821 81.3122 160.402 81.6615 159.87 81.942C159.338 82.2226 158.731 82.365 158.048 82.3691C157.291 82.3737 156.597 82.186 155.965 81.8058C155.333 81.415 154.829 80.8741 154.451 80.183C154.084 79.4812 153.898 78.6877 153.893 77.8024ZM161.109 77.7904C161.105 77.1824 160.974 76.6552 160.715 76.2088C160.467 75.7623 160.14 75.4229 159.733 75.1907C159.326 74.9585 158.888 74.8439 158.419 74.8467C157.949 74.8496 157.513 74.9696 157.109 75.2067C156.705 75.4332 156.376 75.7712 156.123 76.2208C155.88 76.6596 155.761 77.183 155.765 77.791C155.768 78.399 155.894 78.9315 156.142 79.3887C156.401 79.8458 156.734 80.1958 157.141 80.4386C157.558 80.6708 157.996 80.7854 158.455 80.7826C158.924 80.7798 159.361 80.6598 159.765 80.4226C160.169 80.1855 160.492 79.8422 160.734 79.3927C160.988 78.9325 161.112 78.3984 161.109 77.7904ZM169.075 80.7659C170.131 80.7595 170.826 80.2912 171.162 79.3612L173.13 79.3492C172.9 80.1613 172.483 80.8305 171.878 81.3569C171.284 81.8725 170.534 82.1757 169.628 82.2666L169.632 82.9226C170.25 82.9188 170.753 83.0597 171.138 83.3454C171.524 83.6417 171.719 84.0565 171.722 84.5899C171.725 85.1232 171.536 85.5457 171.154 85.8574C170.772 86.1797 170.287 86.3426 169.701 86.3462L167.589 86.3591L167.582 85.2071L169.326 85.1965C169.624 85.1947 169.848 85.1506 169.997 85.0644C170.146 84.9781 170.219 84.823 170.218 84.599C170.217 84.375 170.141 84.2208 169.991 84.1364C169.841 84.052 169.617 84.0107 169.318 84.0125L168.438 84.0179L168.428 82.2579C167.702 82.177 167.06 81.9409 166.503 81.5496C165.946 81.1477 165.511 80.6276 165.198 79.9895C164.895 79.3407 164.741 78.6003 164.736 77.7683C164.731 76.8617 164.907 76.0659 165.266 75.381C165.635 74.6854 166.144 74.149 166.792 73.7717C167.44 73.3944 168.186 73.2032 169.029 73.1981C170.095 73.1916 170.977 73.4422 171.673 73.95C172.38 74.447 172.859 75.1641 173.11 76.1013L171.142 76.1132C170.98 75.6769 170.722 75.3371 170.368 75.0939C170.015 74.8508 169.571 74.7308 169.038 74.734C168.291 74.7386 167.696 75.0089 167.251 75.5449C166.817 76.0703 166.603 76.8076 166.608 77.7569C166.614 78.7062 166.837 79.4462 167.278 79.9769C167.729 80.5075 168.328 80.7705 169.075 80.7659ZM174.33 77.6779C174.324 76.7925 174.501 76.0074 174.859 75.3226C175.229 74.6377 175.727 74.1066 176.354 73.7295C176.991 73.3416 177.694 73.1453 178.462 73.1406C179.155 73.1364 179.759 73.2714 180.273 73.5456C180.797 73.8091 181.215 74.1425 181.527 74.546L181.519 73.266L183.359 73.2548L183.413 82.0706L181.573 82.0818L181.565 80.7698C181.258 81.1877 180.839 81.5369 180.307 81.8175C179.775 82.0981 179.168 82.2405 178.486 82.2446C177.728 82.2492 177.034 82.0615 176.402 81.6813C175.77 81.2905 175.266 80.7495 174.888 80.0585C174.521 79.3567 174.335 78.5632 174.33 77.6779ZM181.546 77.6659C181.542 77.0579 181.411 76.5307 181.152 76.0843C180.904 75.6378 180.577 75.2984 180.17 75.0662C179.763 74.834 179.325 74.7194 178.856 74.7222C178.386 74.7251 177.95 74.8451 177.546 75.0822C177.142 75.3087 176.813 75.6467 176.56 76.0962C176.317 76.5351 176.198 77.0585 176.202 77.6665C176.205 78.2744 176.331 78.807 176.579 79.2642C176.838 79.7213 177.171 80.0713 177.578 80.3141C177.995 80.5462 178.433 80.6609 178.892 80.6581C179.361 80.6553 179.798 80.5353 180.202 80.2981C180.606 80.061 180.929 79.7177 181.172 79.2682C181.425 78.808 181.549 78.2739 181.546 77.6659ZM176.521 72.3844C176.603 71.7652 176.803 71.3 177.121 70.9887C177.439 70.6668 177.838 70.5043 178.318 70.5014C178.521 70.5002 178.697 70.5311 178.847 70.5942C178.996 70.6573 179.178 70.7522 179.392 70.8789C179.553 70.9846 179.687 71.0638 179.794 71.1164C179.911 71.1691 180.04 71.1949 180.178 71.1941C180.36 71.193 180.509 71.1388 180.625 71.0314C180.753 70.9133 180.832 70.7421 180.862 70.5179L181.886 70.5117C181.805 71.1309 181.605 71.6014 181.287 71.9234C180.969 72.2346 180.57 72.3917 180.09 72.3947C179.887 72.3959 179.705 72.365 179.545 72.302C179.385 72.2283 179.208 72.128 179.015 72.0012C178.822 71.885 178.673 71.806 178.566 71.7639C178.469 71.7112 178.357 71.6852 178.229 71.686C178.048 71.6871 177.894 71.7467 177.766 71.8648C177.65 71.9829 177.576 72.154 177.545 72.3782L176.521 72.3844ZM189.633 82.1767C188.801 82.1818 188.048 81.9997 187.374 81.6305C186.699 81.2506 186.168 80.7205 185.78 80.0401C185.392 79.3492 185.195 78.5503 185.189 77.6437C185.184 76.7477 185.376 75.9519 185.767 75.2561C186.157 74.5604 186.693 74.0238 187.373 73.6463C188.054 73.2688 188.815 73.0775 189.658 73.0724C190.5 73.0673 191.264 73.2493 191.949 73.6184C192.634 73.9876 193.176 74.5176 193.575 75.2086C193.974 75.8995 194.176 76.6929 194.181 77.5889C194.187 78.4849 193.989 79.2808 193.588 79.9766C193.187 80.6724 192.635 81.2144 191.934 81.6027C191.243 81.9802 190.476 82.1716 189.633 82.1767ZM189.623 80.5927C190.093 80.5899 190.529 80.4752 190.933 80.2487C191.348 80.0222 191.682 79.6842 191.935 79.2346C192.189 78.7851 192.313 78.2403 192.309 77.6003C192.305 76.9603 192.179 76.4224 191.931 75.9866C191.683 75.5401 191.356 75.2061 190.949 74.9846C190.543 74.763 190.105 74.6537 189.635 74.6566C189.166 74.6594 188.729 74.7741 188.325 75.0005C187.932 75.2269 187.619 75.5649 187.388 76.0143C187.156 76.453 187.042 76.9924 187.045 77.6324C187.051 78.5817 187.296 79.3162 187.779 79.836C188.273 80.345 188.888 80.5972 189.623 80.5927Z" fill="#D9D9D9"/>
<path d="M3.04986 187.66L3.09304 194.748C3.09818 195.59 3.32071 196.223 3.76063 196.647C4.21122 197.071 4.83118 197.281 5.6205 197.276C6.42048 197.271 7.03784 197.054 7.47256 196.625C7.91795 196.195 8.13808 195.559 8.13295 194.717L8.08977 187.629L9.91373 187.618L9.95672 194.674C9.96225 195.58 9.76959 196.35 9.37877 196.981C8.98794 197.613 8.46281 198.086 7.80338 198.399C7.14394 198.712 6.41423 198.871 5.61424 198.876C4.81426 198.881 4.08266 198.731 3.41946 198.426C2.76692 198.12 2.24674 197.654 1.85891 197.027C1.47108 196.4 1.27441 195.633 1.26888 194.727L1.22589 187.671L3.04986 187.66ZM17.4264 193.14L20.9162 198.671L18.8682 198.683L16.3317 194.667L14.0043 198.713L11.9723 198.725L15.3944 193.153L11.8886 187.606L13.9365 187.593L16.4892 191.642L18.8324 187.563L20.8644 187.551L17.4264 193.14ZM35.1265 193.96C35.1285 194.291 35.109 194.59 35.0679 194.857L28.3321 194.898C28.3897 195.601 28.6544 196.165 29.1264 196.589C29.5983 197.013 30.1756 197.223 30.8582 197.218C31.8396 197.212 32.5304 196.798 32.9307 195.974L34.8987 195.962C34.6369 196.774 34.1557 197.444 33.4549 197.971C32.7647 198.487 31.9022 198.748 30.8676 198.754C30.0249 198.76 29.2665 198.577 28.5922 198.208C27.9286 197.828 27.4027 197.298 27.0145 196.618C26.637 195.927 26.4454 195.128 26.4399 194.221C26.4344 193.315 26.6109 192.519 26.9694 191.834C27.3385 191.138 27.8525 190.602 28.5116 190.225C29.1813 189.847 29.9481 189.656 30.8121 189.651C31.6441 189.645 32.3865 189.822 33.0394 190.181C33.6923 190.54 34.202 191.049 34.5687 191.708C34.9354 192.356 35.1213 193.107 35.1265 193.96ZM33.219 193.396C33.2042 192.724 32.961 192.187 32.4892 191.784C32.0174 191.382 31.4348 191.183 30.7415 191.187C30.1122 191.191 29.5747 191.397 29.1292 191.805C28.6836 192.202 28.4203 192.743 28.3391 193.426L33.219 193.396ZM42.846 187.417L42.8892 194.505C42.8943 195.348 43.1168 195.981 43.5568 196.405C44.0074 196.829 44.6273 197.039 45.4166 197.034C46.2166 197.029 46.834 196.812 47.2687 196.382C47.7141 195.953 47.9342 195.317 47.9291 194.474L47.8859 187.386L49.7099 187.375L49.7529 194.431C49.7584 195.338 49.5657 196.107 49.1749 196.739C48.7841 197.371 48.259 197.843 47.5995 198.156C46.9401 198.47 46.2104 198.629 45.4104 198.634C44.6104 198.639 43.8788 198.488 43.2156 198.183C42.5631 197.878 42.0429 197.412 41.655 196.785C41.2672 196.158 41.0705 195.391 41.065 194.484L41.022 187.428L42.846 187.417ZM53.9087 187.35L53.9764 198.47L52.1524 198.481L52.0847 187.361L53.9087 187.35ZM64.0915 187.288C65.2755 187.281 66.3115 187.504 67.1996 187.957C68.0983 188.399 68.7903 189.046 69.2755 189.896C69.7713 190.736 70.0226 191.721 70.0295 192.852C70.0364 193.982 69.797 194.965 69.3114 195.8C68.8365 196.635 68.1524 197.279 67.2592 197.733C66.3765 198.175 65.3432 198.4 64.1592 198.408L60.5273 198.43L60.4595 187.31L64.0915 187.288ZM64.1502 196.92C65.4515 196.912 66.4466 196.554 67.1357 195.845C67.8247 195.137 68.1653 194.143 68.1575 192.863C68.1497 191.572 67.7969 190.567 67.0991 189.845C66.4014 189.124 65.4019 188.768 64.1005 188.776L62.2926 188.787L62.3422 196.931L64.1502 196.92ZM79.9225 193.687C79.9245 194.018 79.905 194.317 79.864 194.584L73.1281 194.625C73.1857 195.328 73.4505 195.892 73.9224 196.316C74.3943 196.74 74.9716 196.95 75.6543 196.945C76.6356 196.94 77.3264 196.525 77.7267 195.701L79.6947 195.689C79.433 196.501 78.9517 197.171 78.2509 197.698C77.5607 198.214 76.6983 198.475 75.6636 198.481C74.821 198.487 74.0625 198.305 73.3883 197.935C72.7246 197.555 72.1987 197.025 71.8106 196.345C71.433 195.654 71.2415 194.855 71.2359 193.948C71.2304 193.042 71.4069 192.246 71.7654 191.561C72.1345 190.865 72.6486 190.329 73.3076 189.952C73.9773 189.574 74.7442 189.383 75.6082 189.378C76.4402 189.373 77.1826 189.549 77.8354 189.908C78.4883 190.267 78.9981 190.776 79.3648 191.435C79.7314 192.083 79.9173 192.834 79.9225 193.687ZM78.015 193.123C78.0003 192.451 77.757 191.914 77.2852 191.511C76.8134 191.109 76.2309 190.91 75.5375 190.914C74.9082 190.918 74.3708 191.124 73.9253 191.532C73.4797 191.929 73.2163 192.47 73.1351 193.153L78.015 193.123ZM84.9465 198.425C84.2531 198.429 83.6284 198.31 83.0723 198.068C82.5267 197.816 82.0926 197.477 81.77 197.052C81.4474 196.617 81.2738 196.133 81.2492 195.599L83.1371 195.588C83.1714 195.961 83.3493 196.275 83.6709 196.529C84.003 196.772 84.4145 196.892 84.9051 196.889C85.4171 196.886 85.8112 196.788 86.0873 196.594C86.3741 196.389 86.5165 196.133 86.5146 195.823C86.5126 195.493 86.3511 195.248 86.0302 195.09C85.7199 194.932 85.2228 194.759 84.539 194.571C83.8766 194.394 83.3368 194.221 82.9198 194.053C82.5028 193.885 82.1385 193.626 81.827 193.276C81.5262 192.926 81.3741 192.463 81.3706 191.887C81.3677 191.417 81.5038 190.99 81.7788 190.604C82.0537 190.208 82.4465 189.896 82.9571 189.669C83.4784 189.442 84.075 189.326 84.747 189.322C85.7497 189.316 86.5565 189.567 87.1676 190.075C87.7893 190.573 88.1242 191.259 88.1722 192.133L86.3482 192.144C86.3138 191.75 86.1519 191.436 85.8625 191.203C85.5731 190.97 85.183 190.855 84.6924 190.858C84.2124 190.861 83.8449 190.954 83.59 191.137C83.3352 191.32 83.2086 191.561 83.2104 191.859C83.2119 192.094 83.2984 192.291 83.47 192.45C83.6417 192.609 83.8505 192.735 84.0964 192.83C84.3422 192.914 84.7056 193.024 85.1864 193.159C85.8274 193.326 86.3511 193.499 86.7576 193.678C87.1746 193.846 87.5335 194.1 87.8342 194.439C88.135 194.779 88.2924 195.231 88.3065 195.796C88.3096 196.298 88.1736 196.747 87.8987 197.143C87.6238 197.539 87.231 197.851 86.7204 198.078C86.2204 198.305 85.6291 198.421 84.9465 198.425ZM91.1595 188.259C90.8289 188.261 90.5509 188.151 90.3255 187.928C90.1001 187.705 89.9864 187.429 89.9844 187.098C89.9824 186.767 90.0927 186.489 90.3154 186.264C90.538 186.039 90.8146 185.925 91.1453 185.923C91.4653 185.921 91.738 186.031 91.9633 186.254C92.1887 186.477 92.3024 186.753 92.3044 187.084C92.3064 187.415 92.1961 187.693 91.9735 187.918C91.7508 188.143 91.4795 188.257 91.1595 188.259ZM92.0626 189.421L92.1163 198.237L90.2924 198.248L90.2387 189.432L92.0626 189.421ZM98.0084 189.241C98.691 189.237 99.2945 189.372 99.8189 189.646C100.354 189.91 100.772 190.243 101.073 190.647L101.065 189.367L102.905 189.355L102.96 198.315C102.965 199.126 102.798 199.847 102.461 200.478C102.124 201.12 101.631 201.625 100.982 201.991C100.344 202.358 99.5775 202.544 98.6815 202.549C97.4868 202.557 96.4931 202.28 95.7004 201.719C94.9077 201.17 94.4551 200.415 94.3425 199.456L96.1505 199.445C96.292 199.902 96.5875 200.269 97.0372 200.543C97.4976 200.828 98.0425 200.969 98.6718 200.965C99.4078 200.961 99.9984 200.733 100.444 200.283C100.9 199.832 101.125 199.18 101.12 198.326L101.111 196.854C100.804 197.272 100.385 197.627 99.8533 197.918C99.3323 198.199 98.7358 198.341 98.0639 198.345C97.2959 198.35 96.5907 198.162 95.9484 197.782C95.3167 197.391 94.812 196.85 94.4345 196.159C94.0675 195.457 93.8813 194.664 93.876 193.778C93.8706 192.893 94.0471 192.108 94.4056 191.423C94.7748 190.738 95.2729 190.207 95.8999 189.83C96.5376 189.442 97.2404 189.246 98.0084 189.241ZM101.092 193.766C101.088 193.158 100.957 192.631 100.698 192.185C100.45 191.738 100.123 191.399 99.7161 191.167C99.3094 190.935 98.8714 190.82 98.402 190.823C97.9327 190.826 97.4961 190.946 97.0922 191.183C96.6882 191.409 96.3596 191.747 96.1064 192.197C95.8637 192.636 95.7442 193.159 95.7479 193.767C95.7516 194.375 95.8775 194.908 96.1257 195.365C96.3844 195.822 96.7173 196.172 97.1241 196.415C97.5415 196.647 97.9795 196.761 98.4382 196.759C98.9075 196.756 99.3441 196.636 99.748 196.399C100.152 196.162 100.475 195.818 100.718 195.369C100.971 194.909 101.096 194.374 101.092 193.766ZM109.748 189.17C110.441 189.165 111.061 189.306 111.607 189.59C112.163 189.875 112.598 190.299 112.91 190.862C113.223 191.426 113.382 192.108 113.387 192.908L113.418 198.107L111.61 198.118L111.58 193.191C111.576 192.401 111.375 191.8 110.977 191.386C110.58 190.962 110.04 190.752 109.358 190.756C108.675 190.76 108.132 190.977 107.73 191.406C107.337 191.824 107.144 192.428 107.149 193.218L107.179 198.145L105.355 198.157L105.301 189.341L107.125 189.33L107.131 190.338C107.427 189.973 107.804 189.688 108.262 189.483C108.73 189.277 109.225 189.173 109.748 189.17ZM123.797 193.42C123.799 193.751 123.779 194.05 123.738 194.316L117.002 194.358C117.06 195.061 117.325 195.625 117.797 196.049C118.269 196.473 118.846 196.682 119.528 196.678C120.51 196.672 121.201 196.257 121.601 195.434L123.569 195.422C123.307 196.234 122.826 196.903 122.125 197.43C121.435 197.947 120.572 198.208 119.538 198.214C118.695 198.219 117.937 198.037 117.262 197.668C116.599 197.288 116.073 196.758 115.685 196.078C115.307 195.387 115.116 194.588 115.11 193.681C115.105 192.774 115.281 191.979 115.64 191.294C116.009 190.598 116.523 190.062 117.182 189.684C117.852 189.307 118.618 189.116 119.482 189.11C120.314 189.105 121.057 189.282 121.71 189.641C122.362 189.999 122.872 190.508 123.239 191.167C123.606 191.816 123.792 192.567 123.797 193.42ZM121.889 192.856C121.874 192.184 121.631 191.647 121.159 191.244C120.688 190.842 120.105 190.643 119.412 190.647C118.782 190.651 118.245 190.857 117.799 191.265C117.354 191.662 117.09 192.202 117.009 192.885L121.889 192.856ZM127.398 190.486C127.662 190.037 128.012 189.688 128.448 189.44C128.894 189.181 129.421 189.05 130.029 189.046L130.041 190.934L129.577 190.937C128.862 190.941 128.319 191.126 127.948 191.491C127.588 191.856 127.41 192.486 127.416 193.382L127.444 198.022L125.62 198.033L125.566 189.217L127.39 189.206L127.398 190.486Z" fill="#D9D9D9"/>
<path d="M188.786 264.789L188.795 266.277L184.075 266.306L184.095 269.586L187.775 269.563L187.784 271.051L184.104 271.074L184.134 275.938L182.31 275.949L182.242 264.829L188.786 264.789ZM198.474 267.034L198.528 275.85L196.704 275.861L196.697 274.821C196.412 275.186 196.035 275.476 195.567 275.692C195.109 275.898 194.619 276.002 194.097 276.005C193.403 276.009 192.778 275.869 192.222 275.585C191.676 275.3 191.242 274.876 190.918 274.312C190.605 273.749 190.447 273.067 190.442 272.267L190.41 267.083L192.218 267.072L192.248 271.984C192.253 272.774 192.454 273.38 192.851 273.805C193.248 274.218 193.788 274.423 194.471 274.419C195.154 274.415 195.691 274.203 196.083 273.785C196.486 273.356 196.685 272.747 196.68 271.957L196.65 267.045L198.474 267.034ZM202.686 263.985L202.758 275.824L200.934 275.835L200.862 263.996L202.686 263.985ZM206.905 263.959L206.977 275.799L205.153 275.81L205.081 263.97L206.905 263.959ZM212.572 275.909C211.879 275.913 211.254 275.794 210.698 275.552C210.153 275.299 209.719 274.961 209.396 274.536C209.073 274.1 208.9 273.616 208.875 273.083L210.763 273.071C210.797 273.445 210.975 273.758 211.297 274.012C211.629 274.256 212.04 274.376 212.531 274.373C213.043 274.37 213.437 274.271 213.713 274.078C214 273.873 214.143 273.616 214.141 273.307C214.139 272.976 213.977 272.732 213.656 272.574C213.346 272.416 212.849 272.243 212.165 272.055C211.503 271.878 210.963 271.705 210.546 271.537C210.129 271.369 209.765 271.11 209.453 270.759C209.152 270.409 209 269.946 208.997 269.37C208.994 268.901 209.13 268.473 209.405 268.088C209.68 267.691 210.072 267.38 210.583 267.152C211.104 266.925 211.701 266.81 212.373 266.806C213.376 266.799 214.183 267.051 214.794 267.559C215.415 268.056 215.75 268.742 215.798 269.617L213.974 269.628C213.94 269.233 213.778 268.92 213.488 268.687C213.199 268.454 212.809 268.339 212.318 268.342C211.838 268.345 211.471 268.438 211.216 268.621C210.961 268.804 210.835 269.044 210.836 269.343C210.838 269.578 210.924 269.774 211.096 269.933C211.268 270.092 211.476 270.219 211.722 270.314C211.968 270.397 212.332 270.507 212.812 270.643C213.453 270.81 213.977 270.983 214.384 271.161C214.801 271.33 215.159 271.583 215.46 271.923C215.761 272.262 215.918 272.715 215.933 273.28C215.936 273.781 215.8 274.23 215.525 274.627C215.25 275.023 214.857 275.335 214.346 275.562C213.846 275.789 213.255 275.904 212.572 275.909ZM220.002 268.391L220.031 273.271C220.033 273.602 220.11 273.841 220.26 273.99C220.421 274.127 220.688 274.195 221.061 274.193L222.181 274.186L222.19 275.706L220.75 275.715C219.929 275.72 219.298 275.532 218.859 275.15C218.419 274.769 218.197 274.146 218.191 273.282L218.162 268.402L217.122 268.409L217.113 266.921L218.153 266.914L218.139 264.722L219.979 264.711L219.993 266.903L222.137 266.89L222.146 268.378L220.002 268.391ZM223.236 271.251C223.231 270.366 223.407 269.581 223.766 268.896C224.135 268.211 224.633 267.68 225.26 267.303C225.898 266.915 226.601 266.719 227.369 266.714C228.062 266.71 228.666 266.845 229.179 267.119C229.703 267.383 230.122 267.716 230.433 268.12L230.426 266.84L232.266 266.828L232.319 275.644L230.479 275.655L230.471 274.343C230.164 274.761 229.745 275.111 229.214 275.391C228.682 275.672 228.075 275.814 227.392 275.818C226.635 275.823 225.94 275.635 225.309 275.255C224.677 274.864 224.172 274.323 223.795 273.632C223.428 272.93 223.242 272.137 223.236 271.251ZM230.452 271.24C230.449 270.632 230.317 270.104 230.059 269.658C229.811 269.211 229.483 268.872 229.076 268.64C228.67 268.408 228.232 268.293 227.762 268.296C227.293 268.299 226.856 268.419 226.453 268.656C226.049 268.882 225.72 269.22 225.467 269.67C225.224 270.109 225.105 270.632 225.108 271.24C225.112 271.848 225.238 272.381 225.486 272.838C225.745 273.295 226.078 273.645 226.484 273.888C226.902 274.12 227.34 274.235 227.799 274.232C228.268 274.229 228.704 274.109 229.108 273.872C229.512 273.635 229.835 273.291 230.078 272.842C230.331 272.382 230.456 271.847 230.452 271.24ZM234.08 271.217C234.075 270.311 234.251 269.515 234.609 268.83C234.979 268.135 235.487 267.598 236.136 267.221C236.784 266.844 237.53 266.652 238.372 266.647C239.439 266.641 240.32 266.891 241.017 267.399C241.724 267.896 242.203 268.613 242.454 269.55L240.486 269.562C240.323 269.126 240.065 268.786 239.712 268.543C239.358 268.3 238.915 268.18 238.382 268.183C237.635 268.188 237.039 268.458 236.595 268.994C236.16 269.519 235.946 270.257 235.952 271.206C235.958 272.155 236.181 272.895 236.622 273.426C237.073 273.957 237.672 274.22 238.418 274.215C239.474 274.209 240.17 273.74 240.506 272.81L242.474 272.798C242.223 273.696 241.748 274.413 241.047 274.951C240.346 275.478 239.473 275.745 238.428 275.751C237.585 275.756 236.837 275.574 236.184 275.205C235.531 274.825 235.016 274.294 234.639 273.614C234.272 272.923 234.086 272.124 234.08 271.217ZM247.77 271.15L251.86 275.525L249.396 275.54L246.109 271.768L246.132 275.56L244.308 275.571L244.236 263.731L246.06 263.72L246.102 270.6L249.279 266.725L251.807 266.709L247.77 271.15ZM256.689 271.048C256.683 270.162 256.86 269.377 257.218 268.692C257.588 268.007 258.086 267.476 258.713 267.099C259.35 266.711 260.059 266.515 260.837 266.51C261.413 266.507 261.979 266.631 262.536 266.884C263.102 267.126 263.552 267.454 263.886 267.868L263.86 263.612L265.7 263.601L265.772 275.44L263.932 275.452L263.924 274.124C263.628 274.552 263.214 274.907 262.682 275.187C262.161 275.468 261.559 275.61 260.877 275.614C260.109 275.619 259.404 275.431 258.761 275.051C258.129 274.66 257.625 274.119 257.247 273.428C256.88 272.727 256.694 271.933 256.689 271.048ZM263.905 271.036C263.901 270.428 263.77 269.9 263.511 269.454C263.263 269.008 262.936 268.668 262.529 268.436C262.122 268.204 261.684 268.089 261.215 268.092C260.746 268.095 260.309 268.215 259.905 268.452C259.501 268.678 259.172 269.016 258.919 269.466C258.677 269.905 258.557 270.428 258.561 271.036C258.564 271.644 258.69 272.177 258.938 272.634C259.197 273.091 259.53 273.441 259.937 273.684C260.354 273.916 260.792 274.031 261.251 274.028C261.72 274.025 262.157 273.905 262.561 273.668C262.965 273.431 263.288 273.087 263.531 272.638C263.784 272.178 263.909 271.644 263.905 271.036ZM276.219 270.753C276.221 271.083 276.202 271.382 276.161 271.649L269.425 271.69C269.482 272.394 269.747 272.957 270.219 273.381C270.691 273.805 271.268 274.015 271.951 274.011C272.932 274.005 273.623 273.59 274.023 272.766L275.991 272.754C275.73 273.566 275.248 274.236 274.548 274.763C273.857 275.279 272.995 275.54 271.96 275.547C271.118 275.552 270.359 275.37 269.685 275.001C269.021 274.621 268.495 274.09 268.107 273.41C267.73 272.719 267.538 271.92 267.533 271.014C267.527 270.107 267.703 269.311 268.062 268.626C268.431 267.931 268.945 267.394 269.604 267.017C270.274 266.639 271.041 266.448 271.905 266.443C272.737 266.438 273.479 266.615 274.132 266.973C274.785 267.332 275.295 267.841 275.661 268.5C276.028 269.148 276.214 269.899 276.219 270.753ZM274.312 270.188C274.297 269.516 274.054 268.979 273.582 268.577C273.11 268.174 272.527 267.975 271.834 267.979C271.205 267.983 270.667 268.189 270.222 268.597C269.776 268.995 269.513 269.535 269.432 270.218L274.312 270.188ZM281.44 273.713L283.892 266.514L285.828 266.502L282.522 275.338L280.346 275.352L276.949 266.556L278.901 266.544L281.44 273.713ZM295.313 270.636C295.315 270.967 295.295 271.266 295.254 271.533L288.518 271.574C288.576 272.277 288.84 272.841 289.312 273.265C289.784 273.689 290.362 273.899 291.044 273.894C292.026 273.888 292.716 273.474 293.117 272.65L295.085 272.638C294.823 273.45 294.342 274.12 293.641 274.647C292.951 275.163 292.088 275.424 291.054 275.43C290.211 275.436 289.453 275.253 288.778 274.884C288.115 274.504 287.589 273.974 287.201 273.294C286.823 272.603 286.631 271.804 286.626 270.897C286.62 269.991 286.797 269.195 287.155 268.51C287.524 267.814 288.039 267.278 288.698 266.901C289.367 266.523 290.134 266.332 290.998 266.327C291.83 266.321 292.573 266.498 293.225 266.857C293.878 267.216 294.388 267.725 294.755 268.384C295.121 269.032 295.307 269.783 295.313 270.636ZM293.405 270.072C293.39 269.4 293.147 268.863 292.675 268.46C292.203 268.058 291.621 267.859 290.928 267.863C290.298 267.867 289.761 268.073 289.315 268.481C288.87 268.878 288.606 269.419 288.525 270.102L293.405 270.072ZM298.887 263.398L298.96 275.238L297.136 275.249L297.064 263.41L298.887 263.398ZM305.179 275.344C304.347 275.349 303.594 275.167 302.92 274.798C302.245 274.418 301.714 273.888 301.326 273.208C300.938 272.517 300.741 271.718 300.735 270.811C300.73 269.915 300.922 269.119 301.313 268.424C301.703 267.728 302.239 267.191 302.919 266.814C303.599 266.436 304.361 266.245 305.204 266.24C306.046 266.235 306.81 266.417 307.495 266.786C308.18 267.155 308.722 267.685 309.121 268.376C309.52 269.067 309.722 269.861 309.727 270.757C309.733 271.653 309.535 272.448 309.134 273.144C308.733 273.84 308.181 274.382 307.48 274.77C306.789 275.148 306.022 275.339 305.179 275.344ZM305.169 273.76C305.639 273.757 306.075 273.643 306.479 273.416C306.894 273.19 307.228 272.852 307.481 272.402C307.735 271.953 307.859 271.408 307.855 270.768C307.851 270.128 307.725 269.59 307.477 269.154C307.229 268.708 306.902 268.374 306.495 268.152C306.089 267.931 305.651 267.821 305.181 267.824C304.712 267.827 304.275 267.942 303.871 268.168C303.478 268.395 303.165 268.732 302.934 269.182C302.702 269.621 302.587 270.16 302.591 270.8C302.597 271.749 302.842 272.484 303.325 273.004C303.819 273.513 304.433 273.765 305.169 273.76ZM313.335 267.63C313.642 267.223 314.062 266.879 314.593 266.599C315.125 266.318 315.727 266.176 316.399 266.172C317.167 266.167 317.866 266.355 318.498 266.735C319.14 267.104 319.645 267.629 320.012 268.31C320.378 268.99 320.565 269.773 320.57 270.658C320.575 271.544 320.399 272.34 320.041 273.046C319.682 273.741 319.184 274.288 318.546 274.687C317.92 275.075 317.222 275.271 316.454 275.276C315.782 275.28 315.184 275.15 314.66 274.887C314.135 274.612 313.707 274.274 313.373 273.87L313.407 279.342L311.583 279.353L311.504 266.346L313.328 266.335L313.335 267.63ZM318.714 270.67C318.71 270.062 318.579 269.54 318.32 269.104C318.072 268.658 317.74 268.324 317.322 268.102C316.916 267.87 316.478 267.755 316.008 267.758C315.55 267.761 315.113 267.881 314.698 268.118C314.294 268.355 313.966 268.699 313.713 269.148C313.47 269.598 313.351 270.126 313.354 270.734C313.358 271.342 313.484 271.875 313.732 272.332C313.991 272.779 314.324 273.118 314.73 273.35C315.148 273.582 315.586 273.697 316.044 273.694C316.514 273.691 316.95 273.571 317.354 273.334C317.769 273.086 318.097 272.732 318.34 272.272C318.593 271.812 318.718 271.278 318.714 270.67ZM330.452 270.422C330.454 270.753 330.435 271.052 330.394 271.319L323.658 271.36C323.716 272.063 323.98 272.627 324.452 273.051C324.924 273.475 325.502 273.684 326.184 273.68C327.166 273.674 327.856 273.259 328.257 272.436L330.225 272.424C329.963 273.236 329.482 273.906 328.781 274.433C328.091 274.949 327.228 275.21 326.194 275.216C325.351 275.221 324.592 275.039 323.918 274.67C323.255 274.29 322.729 273.76 322.341 273.08C321.963 272.389 321.771 271.59 321.766 270.683C321.76 269.777 321.937 268.981 322.295 268.296C322.664 267.6 323.179 267.064 323.838 266.686C324.507 266.309 325.274 266.118 326.138 266.112C326.97 266.107 327.713 266.284 328.365 266.643C329.018 267.002 329.528 267.51 329.895 268.17C330.261 268.818 330.447 269.569 330.452 270.422ZM328.545 269.858C328.53 269.186 328.287 268.649 327.815 268.246C327.343 267.844 326.761 267.645 326.067 267.649C325.438 267.653 324.901 267.859 324.455 268.267C324.01 268.664 323.746 269.204 323.665 269.888L328.545 269.858ZM334.054 267.488C334.318 267.039 334.667 266.69 335.103 266.442C335.55 266.183 336.077 266.052 336.685 266.048L336.696 267.936L336.232 267.939C335.518 267.943 334.975 268.128 334.604 268.493C334.243 268.858 334.066 269.488 334.071 270.384L334.1 275.024L332.276 275.035L332.222 266.219L334.046 266.208L334.054 267.488Z" fill="#D9D9D9"/>
<path d="M184.075 112.29L184.095 115.554L187.935 115.531L187.944 117.018L184.104 117.042L184.125 120.45L188.444 120.423L188.454 121.911L182.31 121.949L182.242 110.813L188.386 110.776L188.395 112.264L184.075 112.29ZM195.093 112.911C195.787 112.907 196.406 113.047 196.952 113.332C197.508 113.616 197.943 114.04 198.256 114.604C198.569 115.167 198.727 115.849 198.732 116.649L198.764 121.849L196.956 121.86L196.926 116.932C196.921 116.142 196.72 115.541 196.323 115.127C195.926 114.703 195.386 114.493 194.703 114.497C194.02 114.501 193.478 114.718 193.075 115.147C192.683 115.566 192.489 116.169 192.494 116.959L192.524 121.887L190.7 121.898L190.646 113.082L192.47 113.071L192.477 114.079C192.773 113.714 193.15 113.429 193.607 113.224C194.075 113.018 194.571 112.914 195.093 112.911ZM204.588 112.853C205.271 112.849 205.874 112.984 206.398 113.258C206.933 113.521 207.351 113.855 207.653 114.258L207.645 112.978L209.485 112.967L209.539 121.927C209.544 122.738 209.378 123.459 209.04 124.09C208.703 124.732 208.21 125.236 207.562 125.603C206.924 125.97 206.157 126.156 205.261 126.161C204.066 126.168 203.073 125.892 202.28 125.331C201.487 124.781 201.035 124.027 200.922 123.068L202.73 123.057C202.871 123.514 203.167 123.881 203.617 124.155C204.077 124.44 204.622 124.581 205.251 124.577C205.987 124.573 206.578 124.345 207.023 123.894C207.479 123.444 207.704 122.792 207.699 121.938L207.69 120.466C207.384 120.884 206.964 121.239 206.433 121.53C205.912 121.81 205.315 121.953 204.643 121.957C203.875 121.962 203.17 121.774 202.528 121.394C201.896 121.003 201.392 120.462 201.014 119.771C200.647 119.069 200.461 118.276 200.455 117.39C200.45 116.505 200.627 115.72 200.985 115.035C201.354 114.35 201.852 113.819 202.479 113.442C203.117 113.054 203.82 112.858 204.588 112.853ZM207.672 117.378C207.668 116.77 207.537 116.243 207.278 115.797C207.03 115.35 206.702 115.011 206.296 114.779C205.889 114.546 205.451 114.432 204.982 114.435C204.512 114.437 204.076 114.557 203.672 114.795C203.268 115.021 202.939 115.359 202.686 115.809C202.443 116.247 202.324 116.771 202.327 117.379C202.331 117.987 202.457 118.519 202.705 118.977C202.964 119.434 203.297 119.784 203.704 120.027C204.121 120.259 204.559 120.373 205.018 120.371C205.487 120.368 205.924 120.248 206.328 120.011C206.731 119.773 207.055 119.43 207.297 118.981C207.55 118.52 207.675 117.986 207.672 117.378ZM219.986 117.095C219.988 117.426 219.968 117.725 219.927 117.992L213.191 118.033C213.249 118.736 213.514 119.3 213.986 119.724C214.458 120.148 215.035 120.357 215.718 120.353C216.699 120.347 217.39 119.932 217.79 119.109L219.758 119.097C219.496 119.909 219.015 120.579 218.314 121.106C217.624 121.622 216.762 121.883 215.727 121.889C214.884 121.894 214.126 121.712 213.452 121.343C212.788 120.963 212.262 120.433 211.874 119.753C211.496 119.062 211.305 118.263 211.299 117.356C211.294 116.45 211.47 115.654 211.829 114.969C212.198 114.273 212.712 113.737 213.371 113.36C214.041 112.982 214.807 112.791 215.671 112.785C216.503 112.78 217.246 112.957 217.899 113.316C218.552 113.675 219.061 114.184 219.428 114.843C219.795 115.491 219.981 116.242 219.986 117.095ZM218.078 116.531C218.064 115.859 217.82 115.322 217.348 114.919C216.877 114.517 216.294 114.318 215.601 114.322C214.971 114.326 214.434 114.532 213.989 114.94C213.543 115.337 213.28 115.877 213.198 116.561L218.078 116.531ZM226.202 112.721C226.896 112.717 227.515 112.857 228.061 113.142C228.617 113.427 229.052 113.851 229.365 114.414C229.677 114.978 229.836 115.659 229.841 116.459L229.873 121.659L228.065 121.67L228.035 116.742C228.03 115.953 227.829 115.351 227.432 114.938C227.035 114.514 226.495 114.304 225.812 114.308C225.129 114.312 224.587 114.529 224.184 114.958C223.792 115.376 223.598 115.98 223.603 116.769L223.633 121.697L221.809 121.708L221.755 112.892L223.579 112.881L223.585 113.889C223.882 113.525 224.259 113.24 224.716 113.034C225.184 112.829 225.68 112.724 226.202 112.721ZM236.705 112.657C237.377 112.653 237.975 112.794 238.499 113.078C239.034 113.363 239.453 113.787 239.755 114.351C240.068 114.914 240.227 115.596 240.232 116.396L240.263 121.596L238.455 121.607L238.425 116.679C238.42 115.89 238.219 115.288 237.822 114.875C237.425 114.45 236.885 114.24 236.202 114.244C235.52 114.249 234.977 114.465 234.574 114.894C234.182 115.313 233.988 115.917 233.993 116.706L234.023 121.634L232.199 121.645L232.127 109.805L233.951 109.794L233.976 113.842C234.283 113.467 234.67 113.176 235.139 112.971C235.617 112.765 236.139 112.661 236.705 112.657ZM241.955 117.137C241.949 116.252 242.126 115.467 242.484 114.782C242.854 114.097 243.352 113.566 243.979 113.189C244.616 112.801 245.319 112.605 246.087 112.6C246.78 112.596 247.384 112.731 247.898 113.005C248.422 113.269 248.84 113.602 249.152 114.006L249.144 112.726L250.984 112.714L251.038 121.53L249.198 121.541L249.19 120.229C248.883 120.647 248.464 120.997 247.932 121.277C247.4 121.558 246.793 121.7 246.111 121.704C245.353 121.709 244.659 121.521 244.027 121.141C243.395 120.75 242.891 120.209 242.513 119.518C242.146 118.816 241.96 118.023 241.955 117.137ZM249.171 117.125C249.167 116.517 249.036 115.99 248.777 115.544C248.529 115.097 248.202 114.758 247.795 114.526C247.388 114.294 246.95 114.179 246.481 114.182C246.011 114.185 245.575 114.305 245.171 114.542C244.767 114.768 244.438 115.106 244.185 115.556C243.942 115.995 243.823 116.518 243.827 117.126C243.83 117.734 243.956 118.267 244.204 118.724C244.463 119.181 244.796 119.531 245.203 119.774C245.62 120.006 246.058 120.12 246.517 120.118C246.986 120.115 247.423 119.995 247.827 119.758C248.231 119.521 248.554 119.177 248.797 118.728C249.05 118.268 249.174 117.733 249.171 117.125ZM255.211 113.969C255.475 113.519 255.825 113.17 256.261 112.922C256.707 112.663 257.235 112.532 257.843 112.529L257.854 114.417L257.39 114.419C256.676 114.424 256.133 114.608 255.762 114.973C255.401 115.338 255.224 115.969 255.229 116.865L255.257 121.504L253.433 121.516L253.38 112.7L255.204 112.689L255.211 113.969ZM260.441 111.489C260.11 111.491 259.832 111.38 259.607 111.158C259.382 110.935 259.268 110.658 259.266 110.328C259.264 109.997 259.374 109.719 259.597 109.494C259.819 109.268 260.096 109.155 260.427 109.153C260.747 109.151 261.019 109.261 261.245 109.484C261.47 109.706 261.584 109.983 261.586 110.314C261.588 110.644 261.478 110.922 261.255 111.148C261.032 111.373 260.761 111.487 260.441 111.489ZM261.344 112.651L261.398 121.467L259.574 121.478L259.52 112.662L261.344 112.651ZM263.157 117.008C263.152 116.123 263.329 115.338 263.687 114.653C264.056 113.968 264.554 113.437 265.181 113.06C265.819 112.672 266.522 112.476 267.29 112.471C267.983 112.467 268.587 112.602 269.1 112.876C269.625 113.139 270.043 113.473 270.354 113.876L270.347 112.596L272.187 112.585L272.24 121.401L270.4 121.412L270.392 120.1C270.086 120.518 269.666 120.867 269.135 121.148C268.603 121.428 267.996 121.571 267.313 121.575C266.556 121.58 265.862 121.392 265.23 121.012C264.598 120.621 264.093 120.08 263.716 119.389C263.349 118.687 263.163 117.894 263.157 117.008ZM270.373 116.996C270.37 116.388 270.239 115.861 269.98 115.415C269.732 114.968 269.404 114.629 268.998 114.397C268.591 114.164 268.153 114.05 267.683 114.053C267.214 114.055 266.778 114.175 266.374 114.413C265.97 114.639 265.641 114.977 265.388 115.427C265.145 115.865 265.026 116.389 265.029 116.997C265.033 117.605 265.159 118.137 265.407 118.595C265.666 119.052 265.999 119.402 266.406 119.645C266.823 119.877 267.261 119.991 267.72 119.989C268.189 119.986 268.626 119.866 269.029 119.629C269.433 119.391 269.757 119.048 269.999 118.599C270.252 118.138 270.377 117.604 270.373 116.996ZM278.15 115.781C278.144 114.693 278.388 113.715 278.884 112.848C279.391 111.981 280.075 111.305 280.936 110.82C281.808 110.324 282.761 110.073 283.796 110.066C284.979 110.059 286.032 110.346 286.953 110.927C287.884 111.498 288.561 112.315 288.984 113.379L286.792 113.392C286.5 112.807 286.098 112.372 285.584 112.088C285.07 111.803 284.477 111.662 283.805 111.666C283.069 111.671 282.414 111.84 281.84 112.174C281.266 112.509 280.816 112.986 280.489 113.607C280.173 114.227 280.017 114.948 280.022 115.769C280.027 116.591 280.192 117.31 280.515 117.927C280.85 118.543 281.306 119.02 281.884 119.358C282.462 119.685 283.119 119.847 283.855 119.842C284.527 119.838 285.118 119.691 285.628 119.399C286.139 119.108 286.536 118.669 286.82 118.08L289.012 118.067C288.603 119.136 287.936 119.961 287.011 120.543C286.098 121.125 285.049 121.419 283.865 121.426C282.819 121.433 281.863 121.198 280.996 120.724C280.129 120.238 279.437 119.565 278.92 118.704C278.413 117.843 278.157 116.869 278.15 115.781ZM292.034 111.296C291.703 111.298 291.425 111.188 291.2 110.965C290.975 110.743 290.861 110.466 290.859 110.135C290.857 109.805 290.967 109.527 291.19 109.301C291.413 109.076 291.689 108.962 292.02 108.96C292.34 108.958 292.613 109.069 292.838 109.291C293.063 109.514 293.177 109.791 293.179 110.121C293.181 110.452 293.071 110.73 292.848 110.955C292.625 111.181 292.354 111.294 292.034 111.296ZM292.937 112.459L292.991 121.275L291.167 121.286L291.113 112.47L292.937 112.459ZM298.784 119.607L301.236 112.408L303.172 112.396L299.866 121.233L297.69 121.246L294.292 112.45L296.244 112.439L298.784 119.607ZM305.471 111.214C305.141 111.216 304.863 111.106 304.637 110.883C304.412 110.661 304.298 110.384 304.296 110.053C304.294 109.723 304.405 109.445 304.627 109.219C304.85 108.994 305.127 108.88 305.457 108.878C305.777 108.876 306.05 108.987 306.275 109.209C306.501 109.432 306.614 109.709 306.616 110.039C306.618 110.37 306.508 110.648 306.285 110.873C306.063 111.099 305.791 111.212 305.471 111.214ZM306.375 112.377L306.428 121.193L304.604 121.204L304.551 112.388L306.375 112.377ZM310.575 109.327L310.647 121.167L308.823 121.178L308.751 109.338L310.575 109.327Z" fill="#D9D9D9"/>
<path d="M50.0878 368.87C50.3947 368.462 50.8139 368.118 51.3455 367.838C51.8772 367.557 52.479 367.415 53.151 367.411C53.9189 367.406 54.6188 367.594 55.2504 367.974C55.8927 368.344 56.3972 368.868 56.7641 369.549C57.1309 370.229 57.317 371.012 57.3224 371.898C57.3278 372.783 57.1513 373.579 56.7929 374.285C56.4345 374.98 55.9365 375.527 55.2989 375.926C54.6719 376.314 53.9744 376.51 53.2064 376.515C52.5344 376.519 51.9363 376.389 51.412 376.126C50.8877 375.852 50.4589 375.513 50.1258 375.109L50.1591 380.581L48.3352 380.592L48.2559 367.585L50.0799 367.574L50.0878 368.87ZM55.4664 371.909C55.4627 371.301 55.3315 370.779 55.0729 370.343C54.8248 369.897 54.4921 369.563 54.0747 369.341C53.668 369.109 53.2299 368.994 52.7606 368.997C52.302 369 51.8654 369.12 51.4508 369.357C51.0469 369.594 50.7183 369.938 50.465 370.387C50.2224 370.837 50.103 371.366 50.1067 371.974C50.1104 372.582 50.2363 373.114 50.4844 373.571C50.7432 374.018 51.0759 374.357 51.4827 374.589C51.9001 374.821 52.3381 374.936 52.7968 374.933C53.2661 374.93 53.7027 374.81 54.1066 374.573C54.5211 374.325 54.8496 373.971 55.0922 373.511C55.3454 373.051 55.4701 372.517 55.4664 371.909ZM62.978 376.455C62.146 376.46 61.3929 376.278 60.7186 375.909C60.0443 375.529 59.5131 374.999 59.1249 374.319C58.7367 373.628 58.5398 372.829 58.5343 371.922C58.5288 371.026 58.7213 370.23 59.1118 369.535C59.5022 368.839 60.0376 368.302 60.718 367.925C61.3984 367.547 62.1599 367.356 63.0025 367.351C63.8452 367.346 64.609 367.528 65.2939 367.897C65.9788 368.266 66.5207 368.796 66.9196 369.487C67.3185 370.178 67.5207 370.971 67.5261 371.867C67.5316 372.763 67.3338 373.559 66.9327 374.255C66.5316 374.951 65.9802 375.493 65.2785 375.881C64.5875 376.259 63.8206 376.45 62.978 376.455ZM62.9683 374.871C63.4377 374.868 63.8743 374.754 64.2783 374.527C64.6929 374.301 65.0268 373.963 65.2801 373.513C65.5334 373.064 65.6581 372.519 65.6542 371.879C65.6503 371.239 65.5243 370.701 65.2763 370.265C65.0283 369.819 64.7009 369.485 64.2942 369.263C63.8875 369.042 63.4495 368.932 62.9802 368.935C62.5109 368.938 62.0742 369.053 61.6703 369.279C61.277 369.505 60.9643 369.843 60.7324 370.293C60.5004 370.732 60.3864 371.271 60.3903 371.911C60.396 372.86 60.6405 373.595 61.1237 374.114C61.6175 374.623 62.2324 374.876 62.9683 374.871ZM71.1342 368.725C71.3981 368.276 71.748 367.927 72.1838 367.679C72.6303 367.42 73.1575 367.289 73.7655 367.285L73.777 369.173L73.313 369.176C72.5983 369.18 72.0554 369.365 71.6843 369.73C71.3239 370.095 71.1464 370.725 71.1518 371.621L71.1801 376.261L69.3561 376.272L69.3024 367.456L71.1264 367.445L71.1342 368.725ZM83.0508 374.557L85.503 367.358L87.439 367.346L84.1327 376.182L81.9568 376.196L78.5591 367.4L80.5111 367.388L83.0508 374.557ZM89.7385 366.164C89.4079 366.166 89.1299 366.056 88.9045 365.833C88.6792 365.61 88.5655 365.334 88.5635 365.003C88.5614 364.672 88.6717 364.394 88.8944 364.169C89.117 363.944 89.3937 363.83 89.7243 363.828C90.0443 363.826 90.317 363.936 90.5423 364.159C90.7677 364.382 90.8814 364.658 90.8834 364.989C90.8854 365.32 90.7751 365.598 90.5525 365.823C90.3299 366.048 90.0585 366.162 89.7385 366.164ZM90.6416 367.326L90.6954 376.142L88.8714 376.153L88.8177 367.338L90.6416 367.326ZM94.8681 368.581C95.132 368.131 95.4819 367.782 95.9178 367.534C96.3642 367.276 96.8914 367.144 97.4994 367.141L97.5109 369.029L97.0469 369.031C96.3322 369.036 95.7894 369.22 95.4182 369.585C95.0578 369.95 94.8803 370.581 94.8858 371.477L94.914 376.117L93.0901 376.128L93.0364 367.312L94.8603 367.301L94.8681 368.581ZM104.123 376.173C103.793 376.175 103.515 376.064 103.289 375.842C103.064 375.619 102.95 375.342 102.948 375.012C102.946 374.681 103.057 374.403 103.279 374.178C103.502 373.952 103.779 373.839 104.109 373.837C104.429 373.835 104.702 373.945 104.927 374.168C105.153 374.39 105.266 374.667 105.268 374.998C105.27 375.328 105.16 375.606 104.937 375.832C104.715 376.057 104.443 376.171 104.123 376.173ZM107.983 376.149C107.652 376.151 107.374 376.041 107.149 375.818C106.923 375.595 106.81 375.319 106.808 374.988C106.806 374.657 106.916 374.379 107.139 374.154C107.361 373.929 107.638 373.815 107.968 373.813C108.288 373.811 108.561 373.921 108.787 374.144C109.012 374.367 109.126 374.643 109.128 374.974C109.13 375.305 109.019 375.583 108.797 375.808C108.574 376.033 108.303 376.147 107.983 376.149ZM111.842 376.125C111.511 376.128 111.233 376.017 111.008 375.795C110.783 375.572 110.669 375.295 110.667 374.965C110.665 374.634 110.775 374.356 110.998 374.131C111.22 373.905 111.497 373.792 111.828 373.79C112.148 373.788 112.42 373.898 112.646 374.121C112.871 374.343 112.985 374.62 112.987 374.95C112.989 375.281 112.879 375.559 112.656 375.785C112.433 376.01 112.162 376.124 111.842 376.125Z" fill="#D9D9D9"/>
<path d="M56.2843 212.26L56.3167 217.576C56.3206 218.208 56.4875 218.683 56.8174 219.001C57.1554 219.319 57.6203 219.476 58.2123 219.472C58.8123 219.469 59.2753 219.306 59.6014 218.984C59.9354 218.662 60.1005 218.185 60.0967 217.553L60.0643 212.237L61.4323 212.229L61.4645 217.52C61.4686 218.2 61.3241 218.777 61.031 219.251C60.7379 219.725 60.3441 220.079 59.8495 220.314C59.3549 220.549 58.8076 220.669 58.2076 220.672C57.6076 220.676 57.059 220.563 56.5615 220.334C56.0721 220.105 55.682 219.756 55.3911 219.286C55.1003 218.815 54.9528 218.24 54.9486 217.56L54.9164 212.268L56.2843 212.26ZM67.0667 216.37L69.6841 220.518L68.1481 220.528L66.2457 217.515L64.5002 220.55L62.9762 220.559L65.5428 216.38L62.9134 212.22L64.4494 212.21L66.3639 215.247L68.1213 212.188L69.6453 212.179L67.0667 216.37ZM75.6082 212.142L75.6406 217.458C75.6444 218.09 75.8113 218.565 76.1413 218.883C76.4792 219.201 76.9442 219.358 77.5362 219.355C78.1362 219.351 78.5992 219.188 78.9252 218.866C79.2593 218.544 79.4244 218.067 79.4205 217.435L79.3881 212.119L80.7561 212.111L80.7884 217.403C80.7925 218.083 80.648 218.66 80.3549 219.133C80.0618 219.607 79.6679 219.962 79.1733 220.197C78.6788 220.432 78.1315 220.551 77.5315 220.555C76.9315 220.558 76.3828 220.446 75.8854 220.217C75.396 219.988 75.0059 219.638 74.715 219.168C74.4241 218.698 74.2766 218.122 74.2725 217.442L74.2402 212.151L75.6082 212.142ZM85.883 213.7C86.403 213.696 86.8677 213.802 87.277 214.015C87.6943 214.229 88.0202 214.547 88.2548 214.969C88.4894 215.392 88.6085 215.903 88.6122 216.503L88.6359 220.403L87.28 220.411L87.2574 216.715C87.2538 216.123 87.1031 215.672 86.8052 215.362C86.5072 215.044 86.1023 214.886 85.5903 214.889C85.0783 214.893 84.6713 215.055 84.3692 215.377C84.0751 215.691 83.9299 216.144 83.9335 216.736L83.956 220.432L82.588 220.44L82.5478 213.828L83.9157 213.82L83.9203 214.576C84.1427 214.302 84.4254 214.089 84.7685 213.934C85.1195 213.78 85.4911 213.702 85.883 213.7ZM91.0312 212.9C90.7832 212.902 90.5747 212.819 90.4057 212.652C90.2367 212.485 90.1514 212.278 90.1499 212.03C90.1484 211.782 90.2311 211.573 90.3981 211.404C90.5651 211.235 90.7726 211.15 91.0206 211.148C91.2606 211.147 91.4651 211.23 91.6341 211.397C91.8031 211.564 91.8884 211.771 91.8899 212.019C91.8914 212.267 91.8087 212.476 91.6417 212.645C91.4747 212.814 91.2712 212.899 91.0312 212.9ZM91.7086 213.772L91.7488 220.384L90.3809 220.392L90.3406 213.78L91.7086 213.772ZM93.0687 217.064C93.0646 216.384 93.1969 215.787 93.4658 215.273C93.7426 214.752 94.1242 214.349 94.6105 214.066C95.0968 213.784 95.6559 213.64 96.2879 213.636C97.0879 213.631 97.749 213.819 98.2714 214.2C98.8016 214.573 99.1609 215.111 99.3492 215.814L97.8732 215.823C97.7512 215.495 97.5577 215.241 97.2926 215.058C97.0274 214.876 96.6949 214.786 96.2949 214.788C95.7349 214.792 95.2881 214.994 94.9546 215.396C94.629 215.79 94.4683 216.343 94.4727 217.055C94.477 217.767 94.6444 218.322 94.9748 218.72C95.3133 219.118 95.7625 219.316 96.3225 219.312C97.1144 219.307 97.6363 218.956 97.8881 218.259L99.364 218.25C99.1761 218.923 98.8194 219.461 98.2939 219.864C97.7683 220.259 97.1135 220.459 96.3295 220.464C95.6975 220.468 95.1367 220.331 94.647 220.054C94.1572 219.769 93.7708 219.372 93.4877 218.861C93.2125 218.343 93.0728 217.744 93.0687 217.064ZM103.609 220.42C102.985 220.424 102.42 220.287 101.914 220.01C101.408 219.725 101.01 219.328 100.719 218.817C100.428 218.299 100.28 217.7 100.276 217.02C100.272 216.348 100.416 215.751 100.709 215.229C101.002 214.708 101.403 214.305 101.914 214.022C102.424 213.739 102.995 213.595 103.627 213.592C104.259 213.588 104.832 213.724 105.346 214.001C105.859 214.278 106.266 214.675 106.565 215.194C106.864 215.712 107.016 216.307 107.02 216.979C107.024 217.651 106.875 218.248 106.575 218.77C106.274 219.292 105.86 219.698 105.334 219.989C104.816 220.272 104.241 220.416 103.609 220.42ZM103.601 219.232C103.953 219.23 104.281 219.144 104.584 218.974C104.895 218.804 105.145 218.55 105.335 218.213C105.525 217.876 105.619 217.467 105.616 216.987C105.613 216.507 105.518 216.104 105.332 215.777C105.146 215.442 104.901 215.192 104.596 215.026C104.291 214.86 103.962 214.778 103.61 214.78C103.258 214.782 102.931 214.868 102.628 215.038C102.333 215.207 102.098 215.461 101.924 215.798C101.75 216.127 101.665 216.532 101.668 217.012C101.672 217.724 101.856 218.274 102.218 218.664C102.588 219.046 103.049 219.235 103.601 219.232ZM109.726 214.622C109.924 214.285 110.186 214.024 110.513 213.838C110.848 213.644 111.243 213.545 111.699 213.542L111.708 214.958L111.36 214.96C110.824 214.964 110.417 215.102 110.138 215.376C109.868 215.65 109.735 216.122 109.739 216.794L109.76 220.274L108.392 220.283L108.352 213.671L109.72 213.662L109.726 214.622ZM116.293 213.514C116.813 213.511 117.277 213.616 117.687 213.83C118.104 214.043 118.43 214.361 118.664 214.784C118.899 215.207 119.018 215.718 119.022 216.318L119.046 220.218L117.69 220.226L117.667 216.53C117.663 215.938 117.513 215.487 117.215 215.177C116.917 214.859 116.512 214.701 116 214.704C115.488 214.707 115.081 214.87 114.779 215.192C114.485 215.505 114.339 215.958 114.343 216.55L114.366 220.246L112.998 220.255L112.957 213.643L114.325 213.634L114.33 214.39C114.552 214.117 114.835 213.903 115.178 213.749C115.529 213.595 115.901 213.517 116.293 213.514ZM121.441 212.715C121.193 212.716 120.984 212.634 120.815 212.467C120.646 212.3 120.561 212.092 120.56 211.844C120.558 211.596 120.641 211.388 120.808 211.219C120.975 211.05 121.182 210.965 121.43 210.963C121.67 210.962 121.875 211.044 122.044 211.211C122.213 211.378 122.298 211.586 122.299 211.834C122.301 212.082 122.218 212.29 122.051 212.459C121.884 212.628 121.681 212.714 121.441 212.715ZM122.118 213.587L122.158 220.199L120.79 220.207L120.75 213.595L122.118 213.587ZM126.823 220.278C126.199 220.282 125.634 220.146 125.129 219.869C124.623 219.584 124.224 219.186 123.933 218.676C123.642 218.158 123.494 217.559 123.49 216.879C123.486 216.207 123.631 215.61 123.923 215.088C124.216 214.566 124.618 214.164 125.128 213.881C125.638 213.597 126.209 213.454 126.841 213.45C127.473 213.446 128.046 213.583 128.56 213.86C129.074 214.137 129.48 214.534 129.779 215.052C130.078 215.57 130.23 216.166 130.234 216.837C130.238 217.509 130.09 218.106 129.789 218.628C129.488 219.15 129.075 219.557 128.548 219.848C128.03 220.131 127.455 220.274 126.823 220.278ZM126.816 219.09C127.168 219.088 127.495 219.002 127.798 218.832C128.109 218.662 128.36 218.409 128.55 218.072C128.74 217.735 128.833 217.326 128.83 216.846C128.827 216.366 128.733 215.963 128.547 215.636C128.361 215.301 128.115 215.05 127.81 214.884C127.505 214.718 127.177 214.636 126.825 214.638C126.473 214.64 126.145 214.726 125.842 214.896C125.547 215.066 125.313 215.319 125.139 215.657C124.965 215.986 124.879 216.39 124.882 216.87C124.887 217.582 125.07 218.133 125.432 218.523C125.803 218.905 126.264 219.094 126.816 219.09Z" fill="#D9D9D9"/>
<path d="M186.575 298.436L183.324 294.723L183.347 298.455L181.979 298.464L181.928 290.124L183.296 290.115L183.32 293.919L186.536 290.096L188.252 290.085L184.654 294.283L188.363 298.425L186.575 298.436ZM195.612 294.912C195.613 295.16 195.598 295.384 195.568 295.585L190.516 295.615C190.559 296.143 190.758 296.566 191.111 296.884C191.465 297.202 191.898 297.359 192.41 297.356C193.146 297.351 193.664 297.04 193.965 296.422L195.441 296.413C195.244 297.023 194.883 297.525 194.358 297.92C193.84 298.307 193.193 298.503 192.417 298.508C191.785 298.512 191.217 298.375 190.711 298.098C190.213 297.813 189.819 297.416 189.528 296.905C189.244 296.387 189.101 295.788 189.097 295.108C189.092 294.428 189.225 293.831 189.494 293.318C189.771 292.796 190.156 292.394 190.65 292.111C191.153 291.828 191.728 291.684 192.376 291.68C193 291.676 193.557 291.809 194.046 292.078C194.536 292.347 194.918 292.729 195.193 293.223C195.468 293.709 195.608 294.272 195.612 294.912ZM194.181 294.489C194.17 293.985 193.987 293.582 193.634 293.28C193.28 292.979 192.843 292.829 192.323 292.832C191.851 292.835 191.448 292.99 191.114 293.296C190.779 293.594 190.582 293.999 190.521 294.511L194.181 294.489ZM200.274 291.632C200.794 291.629 201.259 291.734 201.668 291.947C202.085 292.161 202.411 292.479 202.646 292.902C202.88 293.324 202.999 293.835 203.003 294.435L203.027 298.335L201.671 298.344L201.648 294.648C201.645 294.056 201.494 293.605 201.196 293.294C200.898 292.976 200.493 292.819 199.981 292.822C199.469 292.825 199.062 292.987 198.76 293.309C198.466 293.623 198.321 294.076 198.324 294.668L198.347 298.364L196.979 298.372L196.939 291.76L198.307 291.752L198.311 292.508C198.534 292.235 198.816 292.021 199.159 291.867C199.51 291.713 199.882 291.634 200.274 291.632ZM205.977 297.201L208.977 297.183L208.984 298.299L204.4 298.327L204.393 297.211L207.378 292.813L204.366 292.831L204.359 291.715L208.943 291.687L208.95 292.803L205.977 297.201ZM211.07 290.798C210.822 290.8 210.614 290.717 210.445 290.55C210.276 290.383 210.191 290.175 210.189 289.927C210.188 289.679 210.27 289.471 210.437 289.302C210.604 289.133 210.812 289.048 211.06 289.046C211.3 289.045 211.504 289.127 211.673 289.294C211.842 289.461 211.928 289.669 211.929 289.917C211.931 290.165 211.848 290.373 211.681 290.542C211.514 290.711 211.31 290.797 211.07 290.798ZM211.748 291.67L211.788 298.282L210.42 298.29L210.38 291.678L211.748 291.67ZM219.623 294.766C219.624 295.014 219.61 295.238 219.579 295.438L214.527 295.469C214.57 295.997 214.769 296.42 215.123 296.738C215.477 297.055 215.91 297.213 216.422 297.21C217.158 297.205 217.676 296.894 217.976 296.276L219.452 296.267C219.256 296.876 218.895 297.379 218.369 297.774C217.851 298.161 217.205 298.357 216.429 298.362C215.797 298.365 215.228 298.229 214.722 297.952C214.224 297.667 213.83 297.269 213.539 296.759C213.256 296.241 213.112 295.642 213.108 294.962C213.104 294.282 213.236 293.685 213.505 293.171C213.782 292.65 214.167 292.247 214.662 291.964C215.164 291.681 215.739 291.538 216.387 291.534C217.011 291.53 217.568 291.663 218.058 291.932C218.547 292.201 218.93 292.582 219.205 293.077C219.479 293.563 219.619 294.126 219.623 294.766ZM218.192 294.343C218.181 293.839 217.999 293.436 217.645 293.134C217.291 292.832 216.854 292.683 216.334 292.686C215.862 292.689 215.459 292.843 215.125 293.149C214.791 293.448 214.593 293.853 214.532 294.365L218.192 294.343ZM229.125 296.472L225.633 296.494L225.043 298.201L223.615 298.21L226.552 289.84L228.136 289.83L231.175 298.164L229.735 298.173L229.125 296.472ZM228.734 295.359L227.354 291.491L226.01 295.375L228.734 295.359ZM231.998 294.847C231.994 294.167 232.126 293.57 232.395 293.056C232.672 292.535 233.054 292.132 233.54 291.849C234.026 291.566 234.585 291.423 235.217 291.419C236.017 291.414 236.678 291.602 237.201 291.983C237.731 292.356 238.09 292.894 238.279 293.596L236.803 293.605C236.681 293.278 236.487 293.023 236.222 292.841C235.957 292.659 235.624 292.569 235.224 292.571C234.664 292.574 234.218 292.777 233.884 293.179C233.558 293.573 233.398 294.126 233.402 294.838C233.406 295.55 233.574 296.105 233.904 296.503C234.243 296.901 234.692 297.098 235.252 297.095C236.044 297.09 236.566 296.739 236.818 296.041L238.294 296.032C238.106 296.706 237.749 297.244 237.223 297.647C236.698 298.042 236.043 298.242 235.259 298.247C234.627 298.251 234.066 298.114 233.576 297.837C233.087 297.552 232.7 297.154 232.417 296.644C232.142 296.126 232.002 295.527 231.998 294.847ZM239.193 294.779C239.189 294.115 239.322 293.526 239.59 293.012C239.867 292.499 240.241 292.1 240.711 291.818C241.189 291.527 241.717 291.379 242.293 291.376C242.813 291.373 243.265 291.474 243.65 291.68C244.044 291.877 244.357 292.127 244.591 292.43L244.585 291.47L245.965 291.462L246.005 298.073L244.625 298.082L244.619 297.098C244.389 297.411 244.075 297.673 243.676 297.884C243.277 298.094 242.822 298.201 242.31 298.204C241.742 298.207 241.221 298.067 240.748 297.781C240.274 297.488 239.895 297.083 239.612 296.564C239.337 296.038 239.197 295.443 239.193 294.779ZM244.605 294.77C244.602 294.314 244.504 293.919 244.31 293.584C244.124 293.249 243.878 292.994 243.573 292.82C243.268 292.646 242.94 292.56 242.588 292.562C242.236 292.564 241.908 292.654 241.605 292.832C241.302 293.002 241.056 293.255 240.866 293.593C240.684 293.922 240.594 294.314 240.597 294.77C240.6 295.226 240.694 295.626 240.88 295.969C241.075 296.311 241.324 296.574 241.629 296.756C241.942 296.93 242.271 297.016 242.615 297.014C242.967 297.012 243.294 296.922 243.597 296.744C243.9 296.566 244.143 296.309 244.325 295.972C244.514 295.626 244.608 295.226 244.605 294.77ZM247.326 294.729C247.322 294.065 247.454 293.477 247.723 292.963C248 292.449 248.374 292.051 248.844 291.768C249.322 291.477 249.853 291.33 250.437 291.326C250.869 291.324 251.294 291.417 251.711 291.607C252.136 291.788 252.474 292.034 252.723 292.344L252.704 289.152L254.084 289.144L254.138 298.024L252.758 298.032L252.752 297.036C252.53 297.358 252.22 297.624 251.821 297.834C251.43 298.044 250.979 298.151 250.467 298.154C249.891 298.158 249.362 298.017 248.88 297.732C248.406 297.439 248.028 297.033 247.745 296.515C247.47 295.988 247.33 295.393 247.326 294.729ZM252.738 294.72C252.735 294.264 252.637 293.869 252.443 293.534C252.257 293.199 252.011 292.945 251.706 292.771C251.401 292.596 251.072 292.51 250.72 292.513C250.368 292.515 250.041 292.605 249.738 292.783C249.435 292.952 249.189 293.206 248.999 293.543C248.817 293.872 248.727 294.265 248.73 294.721C248.733 295.177 248.827 295.576 249.013 295.919C249.207 296.262 249.457 296.524 249.762 296.707C250.075 296.881 250.404 296.967 250.748 296.965C251.1 296.962 251.427 296.872 251.73 296.695C252.033 296.517 252.275 296.259 252.457 295.922C252.647 295.577 252.741 295.176 252.738 294.72ZM261.974 294.508C261.975 294.756 261.96 294.98 261.93 295.18L256.878 295.211C256.921 295.739 257.12 296.162 257.474 296.48C257.827 296.797 258.26 296.955 258.772 296.952C259.508 296.947 260.027 296.636 260.327 296.018L261.803 296.009C261.606 296.618 261.246 297.121 260.72 297.516C260.202 297.903 259.555 298.099 258.779 298.104C258.147 298.107 257.579 297.971 257.073 297.694C256.575 297.409 256.181 297.011 255.89 296.501C255.606 295.983 255.463 295.384 255.459 294.704C255.455 294.024 255.587 293.427 255.856 292.913C256.133 292.392 256.518 291.989 257.012 291.706C257.515 291.423 258.09 291.28 258.738 291.276C259.362 291.272 259.919 291.405 260.408 291.674C260.898 291.943 261.28 292.324 261.555 292.819C261.83 293.305 261.97 293.868 261.974 294.508ZM260.543 294.085C260.532 293.581 260.349 293.178 259.996 292.876C259.642 292.574 259.205 292.425 258.685 292.428C258.213 292.431 257.81 292.585 257.476 292.891C257.141 293.189 256.944 293.595 256.883 294.107L260.543 294.085ZM271.304 291.199C271.824 291.196 272.289 291.301 272.698 291.515C273.115 291.728 273.441 292.046 273.676 292.469C273.918 292.891 274.041 293.403 274.045 294.003L274.069 297.902L272.713 297.911L272.69 294.215C272.687 293.623 272.536 293.172 272.238 292.862C271.94 292.543 271.535 292.386 271.023 292.389C270.511 292.392 270.104 292.555 269.802 292.876C269.508 293.19 269.363 293.643 269.366 294.235L269.389 297.931L268.033 297.939L268.01 294.243C268.007 293.651 267.856 293.2 267.558 292.89C267.26 292.572 266.855 292.414 266.343 292.417C265.831 292.421 265.424 292.583 265.122 292.905C264.828 293.219 264.683 293.672 264.686 294.264L264.709 297.959L263.341 297.968L263.301 291.356L264.669 291.348L264.673 292.104C264.896 291.83 265.178 291.617 265.521 291.462C265.864 291.308 266.232 291.23 266.624 291.228C267.152 291.224 267.625 291.334 268.042 291.555C268.459 291.777 268.781 292.099 269.008 292.521C269.205 292.12 269.516 291.802 269.938 291.568C270.361 291.325 270.816 291.202 271.304 291.199ZM281.721 291.244L277.724 300.988L276.308 300.997L277.633 297.773L274.989 291.285L276.513 291.275L278.404 296.304L280.305 291.252L281.721 291.244Z" fill="#D9D9D9"/>
<path d="M183.284 136.115L183.317 141.431C183.321 142.063 183.487 142.538 183.817 142.856C184.155 143.174 184.62 143.331 185.212 143.328C185.812 143.324 186.275 143.161 186.601 142.839C186.935 142.517 187.101 142.04 187.097 141.408L187.064 136.092L188.432 136.084L188.464 141.376C188.469 142.056 188.324 142.633 188.031 143.107C187.738 143.58 187.344 143.935 186.849 144.17C186.355 144.405 185.808 144.524 185.208 144.528C184.608 144.532 184.059 144.419 183.562 144.19C183.072 143.961 182.682 143.611 182.391 143.141C182.1 142.671 181.953 142.096 181.949 141.416L181.916 136.124L183.284 136.115ZM197.116 144.371L195.748 144.38L191.594 138.177L191.632 144.405L190.264 144.413L190.213 136.061L191.581 136.053L195.735 142.244L195.697 136.028L197.065 136.019L197.116 144.371ZM200.23 136.012L200.28 144.352L198.912 144.36L198.862 136.021L200.23 136.012ZM207.873 138.45C207.875 138.874 207.778 139.274 207.58 139.651C207.382 140.029 207.064 140.339 206.626 140.581C206.187 140.816 205.624 140.935 204.936 140.94L203.424 140.949L203.444 144.333L202.076 144.341L202.026 136.001L204.906 135.984C205.546 135.98 206.086 136.088 206.528 136.31C206.977 136.523 207.311 136.817 207.529 137.192C207.755 137.566 207.87 137.986 207.873 138.45ZM204.929 139.824C205.449 139.82 205.836 139.702 206.091 139.469C206.345 139.227 206.471 138.89 206.469 138.458C206.463 137.546 205.944 137.093 204.912 137.1L203.4 137.109L203.417 139.833L204.929 139.824ZM210.537 137.053L210.552 139.501L213.432 139.484L213.439 140.6L210.559 140.617L210.574 143.173L213.814 143.154L213.821 144.27L209.213 144.298L209.162 135.946L213.77 135.918L213.777 137.034L210.537 137.053ZM211.397 134.432L209.687 135.475L209.681 134.407L211.391 133.4L213.113 134.386L213.119 135.454L211.397 134.432Z" fill="#D9D9D9"/>
<path d="M63.5438 239.551C64.3078 238.883 64.9085 238.335 65.3459 237.908C65.7912 237.473 66.1605 237.023 66.4537 236.557C66.7468 236.092 66.892 235.627 66.8892 235.163C66.8862 234.683 66.768 234.307 66.5343 234.037C66.3086 233.766 65.9518 233.632 65.4638 233.635C64.9918 233.638 64.6248 233.793 64.3626 234.098C64.1084 234.396 63.9749 234.796 63.962 235.301L62.642 235.309C62.6604 234.396 62.9282 233.699 63.4452 233.216C63.9703 232.724 64.6368 232.476 65.4447 232.471C66.3167 232.466 66.9982 232.702 67.4891 233.179C67.988 233.656 68.2399 234.295 68.2448 235.094C68.2483 235.67 68.1037 236.227 67.8109 236.765C67.5262 237.295 67.1811 237.773 66.7757 238.199C66.3782 238.618 65.8692 239.105 65.2485 239.661L64.7115 240.144L68.5154 240.121L68.5224 241.261L62.6905 241.296L62.6844 240.3L63.5438 239.551ZM69.6975 236.886C69.6891 235.502 69.9145 234.42 70.3737 233.641C70.841 232.855 71.6466 232.458 72.7905 232.451C73.9345 232.444 74.7409 232.831 75.2097 233.612C75.6864 234.385 75.929 235.464 75.9374 236.848C75.9459 238.248 75.7166 239.345 75.2494 240.14C74.7902 240.927 73.9886 241.324 72.8446 241.331C71.7007 241.338 70.8903 240.95 70.4135 240.169C69.9447 239.38 69.706 238.286 69.6975 236.886ZM74.5934 236.856C74.5895 236.208 74.5421 235.66 74.4514 235.213C74.3687 234.765 74.1985 234.402 73.9408 234.124C73.683 233.837 73.3021 233.696 72.7981 233.699C72.2941 233.702 71.915 233.848 71.6608 234.138C71.4065 234.419 71.2367 234.784 71.1515 235.233C71.0742 235.681 71.0375 236.229 71.0415 236.877C71.0456 237.549 71.089 238.113 71.1718 238.569C71.2546 239.024 71.4248 239.391 71.6825 239.67C71.9482 239.948 72.333 240.086 72.837 240.083C73.341 240.08 73.7202 239.937 73.9745 239.656C74.2367 239.374 74.4065 239.005 74.4837 238.549C74.5609 238.092 74.5975 237.528 74.5934 236.856ZM78.1569 239.462C78.9208 238.794 79.5215 238.246 79.9589 237.819C80.4042 237.384 80.7735 236.934 81.0667 236.468C81.3598 236.003 81.505 235.538 81.5022 235.074C81.4993 234.594 81.381 234.218 81.1473 233.948C80.9217 233.677 80.5648 233.543 80.0768 233.546C79.6049 233.549 79.2378 233.703 78.9756 234.009C78.7215 234.307 78.5879 234.707 78.575 235.212L77.255 235.22C77.2734 234.307 77.5412 233.61 78.0583 233.127C78.5833 232.635 79.2498 232.387 80.0578 232.382C80.9297 232.377 81.6112 232.613 82.1021 233.09C82.601 233.567 82.8529 234.205 82.8578 235.005C82.8613 235.581 82.7167 236.138 82.424 236.676C82.1392 237.206 81.7941 237.684 81.3887 238.11C80.9912 238.529 80.4822 239.016 79.8616 239.572L79.3245 240.055L83.1284 240.032L83.1354 241.172L77.3035 241.207L77.2974 240.211L78.1569 239.462ZM84.3105 236.797C84.3021 235.413 84.5275 234.331 84.9868 233.552C85.454 232.766 86.2596 232.369 87.4035 232.362C88.5475 232.355 89.3539 232.742 89.8227 233.523C90.2994 234.296 90.542 235.375 90.5504 236.759C90.5589 238.159 90.3296 239.256 89.8624 240.051C89.4032 240.838 88.6016 241.235 87.4576 241.242C86.3137 241.249 85.5033 240.861 85.0265 240.08C84.5577 239.291 84.319 238.197 84.3105 236.797ZM89.2064 236.767C89.2025 236.119 89.1551 235.571 89.0644 235.124C88.9817 234.676 88.8115 234.313 88.5538 234.035C88.296 233.748 87.9151 233.607 87.4112 233.61C86.9072 233.613 86.528 233.759 86.2738 234.049C86.0195 234.33 85.8497 234.695 85.7645 235.144C85.6872 235.592 85.6505 236.14 85.6545 236.788C85.6586 237.46 85.702 238.024 85.7848 238.48C85.8676 238.935 86.0378 239.302 86.2955 239.581C86.5612 239.859 86.9461 239.997 87.45 239.994C87.954 239.991 88.3332 239.848 88.5875 239.567C88.8498 239.285 89.0195 238.916 89.0967 238.46C89.1739 238.003 89.2105 237.439 89.2064 236.767ZM100.368 236.267L100.375 237.419L95.4434 237.449L95.4364 236.297L100.368 236.267ZM106.024 239.292C106.787 238.624 107.388 238.076 107.826 237.649C108.271 237.215 108.64 236.764 108.933 236.299C109.227 235.833 109.372 235.368 109.369 234.904C109.366 234.424 109.248 234.049 109.014 233.778C108.788 233.507 108.432 233.374 107.944 233.377C107.472 233.379 107.104 233.534 106.842 233.839C106.588 234.137 106.455 234.538 106.442 235.042L105.122 235.05C105.14 234.138 105.408 233.44 105.925 232.957C106.45 232.466 107.116 232.218 107.924 232.213C108.796 232.207 109.478 232.443 109.969 232.92C110.468 233.397 110.72 234.036 110.724 234.836C110.728 235.412 110.583 235.969 110.291 236.506C110.006 237.036 109.661 237.514 109.255 237.941C108.858 238.359 108.349 238.846 107.728 239.402L107.191 239.885L110.995 239.862L111.002 241.002L105.17 241.038L105.164 240.042L106.024 239.292ZM112.177 236.627C112.169 235.243 112.394 234.161 112.853 233.383C113.321 232.596 114.126 232.199 115.27 232.192C116.414 232.185 117.221 232.572 117.689 233.353C118.166 234.126 118.409 235.205 118.417 236.589C118.426 237.989 118.196 239.086 117.729 239.881C117.27 240.668 116.468 241.065 115.324 241.072C114.18 241.079 113.37 240.692 112.893 239.911C112.424 239.121 112.186 238.027 112.177 236.627ZM117.073 236.597C117.069 235.949 117.022 235.401 116.931 234.954C116.848 234.506 116.678 234.143 116.42 233.865C116.163 233.579 115.782 233.437 115.278 233.44C114.774 233.443 114.395 233.589 114.14 233.879C113.886 234.16 113.716 234.525 113.631 234.974C113.554 235.422 113.517 235.971 113.521 236.619C113.525 237.291 113.569 237.854 113.651 238.31C113.734 238.765 113.904 239.132 114.162 239.411C114.428 239.689 114.813 239.827 115.317 239.824C115.821 239.821 116.2 239.678 116.454 239.397C116.716 239.115 116.886 238.746 116.963 238.29C117.041 237.833 117.077 237.269 117.073 236.597ZM120.637 239.203C121.4 238.535 122.001 237.987 122.439 237.56C122.884 237.126 123.253 236.675 123.546 236.21C123.84 235.744 123.985 235.279 123.982 234.815C123.979 234.335 123.861 233.96 123.627 233.689C123.401 233.418 123.045 233.285 122.557 233.288C122.085 233.29 121.717 233.445 121.455 233.75C121.201 234.048 121.068 234.449 121.055 234.953L119.735 234.961C119.753 234.049 120.021 233.351 120.538 232.868C121.063 232.377 121.729 232.129 122.537 232.124C123.409 232.118 124.091 232.354 124.582 232.831C125.081 233.308 125.333 233.947 125.337 234.747C125.341 235.323 125.196 235.88 124.904 236.417C124.619 236.947 124.274 237.425 123.868 237.852C123.471 238.27 122.962 238.757 122.341 239.313L121.804 239.796L125.608 239.773L125.615 240.913L119.783 240.949L119.777 239.953L120.637 239.203ZM126.592 233.527L126.584 232.279L129.08 232.264L129.133 241.012L127.754 241.02L127.708 233.52L126.592 233.527Z" fill="#D9D9D9"/>
<path d="M182.544 320.546C183.308 319.878 183.908 319.33 184.346 318.903C184.791 318.469 185.16 318.018 185.454 317.553C185.747 317.087 185.892 316.622 185.889 316.158C185.886 315.678 185.768 315.303 185.534 315.032C185.309 314.761 184.952 314.628 184.464 314.631C183.992 314.633 183.625 314.788 183.363 315.093C183.108 315.391 182.975 315.792 182.962 316.296L181.642 316.304C181.66 315.392 181.928 314.694 182.445 314.211C182.97 313.72 183.637 313.472 184.445 313.467C185.317 313.461 185.998 313.697 186.489 314.174C186.988 314.651 187.24 315.29 187.245 316.09C187.248 316.666 187.104 317.222 186.811 317.76C186.526 318.29 186.181 318.768 185.776 319.195C185.378 319.613 184.869 320.1 184.249 320.656L183.711 321.139L187.515 321.116L187.522 322.256L181.69 322.292L181.684 321.296L182.544 320.546ZM188.697 317.881C188.689 316.497 188.914 315.415 189.374 314.637C189.841 313.85 190.647 313.453 191.791 313.446C192.935 313.439 193.741 313.826 194.21 314.607C194.686 315.38 194.929 316.459 194.937 317.843C194.946 319.243 194.717 320.34 194.249 321.135C193.79 321.922 192.989 322.319 191.845 322.326C190.701 322.333 189.89 321.946 189.414 321.164C188.945 320.375 188.706 319.281 188.697 317.881ZM193.593 317.851C193.589 317.203 193.542 316.655 193.451 316.208C193.369 315.76 193.198 315.397 192.941 315.119C192.683 314.832 192.302 314.691 191.798 314.694C191.294 314.697 190.915 314.843 190.661 315.133C190.407 315.414 190.237 315.779 190.151 316.228C190.074 316.676 190.038 317.225 190.041 317.873C190.046 318.545 190.089 319.108 190.172 319.564C190.255 320.019 190.425 320.386 190.682 320.665C190.948 320.943 191.333 321.081 191.837 321.078C192.341 321.075 192.72 320.932 192.974 320.651C193.237 320.369 193.406 320 193.484 319.544C193.561 319.087 193.598 318.523 193.593 317.851ZM197.157 320.457C197.921 319.789 198.521 319.241 198.959 318.814C199.404 318.38 199.773 317.929 200.067 317.464C200.36 316.998 200.505 316.533 200.502 316.069C200.499 315.589 200.381 315.214 200.147 314.943C199.922 314.672 199.565 314.539 199.077 314.541C198.605 314.544 198.238 314.699 197.976 315.004C197.721 315.302 197.588 315.703 197.575 316.207L196.255 316.215C196.273 315.303 196.541 314.605 197.058 314.122C197.583 313.631 198.25 313.383 199.058 313.378C199.93 313.372 200.611 313.608 201.102 314.085C201.601 314.562 201.853 315.201 201.858 316.001C201.861 316.577 201.717 317.133 201.424 317.671C201.139 318.201 200.794 318.679 200.389 319.106C199.991 319.524 199.482 320.011 198.862 320.567L198.324 321.05L202.128 321.027L202.135 322.167L196.303 322.203L196.297 321.207L197.157 320.457ZM203.112 314.781L203.105 313.533L205.601 313.518L205.654 322.266L204.274 322.274L204.228 314.774L203.112 314.781ZM215.876 317.283L215.883 318.435L210.951 318.465L210.944 317.313L215.876 317.283ZM221.531 320.309C222.295 319.64 222.896 319.092 223.333 318.666C223.779 318.231 224.148 317.781 224.441 317.315C224.734 316.849 224.88 316.384 224.877 315.92C224.874 315.44 224.756 315.065 224.522 314.794C224.296 314.524 223.939 314.39 223.451 314.393C222.979 314.396 222.612 314.55 222.35 314.856C222.096 315.153 221.962 315.554 221.95 316.058L220.63 316.066C220.648 315.154 220.916 314.456 221.433 313.973C221.958 313.482 222.624 313.234 223.432 313.229C224.304 313.224 224.986 313.46 225.477 313.937C225.976 314.414 226.227 315.052 226.232 315.852C226.236 316.428 226.091 316.985 225.799 317.523C225.514 318.052 225.169 318.531 224.763 318.957C224.366 319.376 223.857 319.863 223.236 320.418L222.699 320.902L226.503 320.879L226.51 322.018L220.678 322.054L220.672 321.058L221.531 320.309ZM227.685 317.643C227.677 316.259 227.902 315.178 228.361 314.399C228.829 313.612 229.634 313.215 230.778 313.208C231.922 313.201 232.728 313.588 233.197 314.37C233.674 315.143 233.917 316.221 233.925 317.605C233.933 319.005 233.704 320.103 233.237 320.897C232.778 321.684 231.976 322.081 230.832 322.088C229.688 322.095 228.878 321.708 228.401 320.927C227.932 320.138 227.694 319.043 227.685 317.643ZM232.581 317.613C232.577 316.965 232.53 316.418 232.439 315.97C232.356 315.523 232.186 315.16 231.928 314.881C231.671 314.595 231.29 314.453 230.786 314.456C230.282 314.459 229.903 314.606 229.648 314.895C229.394 315.177 229.224 315.542 229.139 315.99C229.062 316.439 229.025 316.987 229.029 317.635C229.033 318.307 229.077 318.871 229.159 319.326C229.242 319.782 229.412 320.149 229.67 320.427C229.936 320.706 230.321 320.843 230.825 320.84C231.329 320.837 231.708 320.695 231.962 320.413C232.224 320.132 232.394 319.763 232.471 319.306C232.548 318.85 232.585 318.285 232.581 317.613ZM236.144 320.22C236.908 319.551 237.509 319.003 237.946 318.577C238.392 318.142 238.761 317.692 239.054 317.226C239.347 316.76 239.493 316.295 239.49 315.831C239.487 315.351 239.369 314.976 239.135 314.705C238.909 314.435 238.552 314.301 238.064 314.304C237.592 314.307 237.225 314.461 236.963 314.767C236.709 315.064 236.575 315.465 236.563 315.969L235.243 315.977C235.261 315.065 235.529 314.367 236.046 313.884C236.571 313.393 237.237 313.145 238.045 313.14C238.917 313.135 239.599 313.371 240.09 313.848C240.589 314.325 240.84 314.963 240.845 315.763C240.849 316.339 240.704 316.896 240.412 317.434C240.127 317.963 239.782 318.442 239.376 318.868C238.979 319.286 238.47 319.774 237.849 320.329L237.312 320.813L241.116 320.789L241.123 321.929L235.291 321.965L235.285 320.969L236.144 320.22ZM243.07 320.178C243.834 319.509 244.435 318.961 244.872 318.535C245.317 318.1 245.687 317.65 245.98 317.184C246.273 316.718 246.418 316.253 246.415 315.789C246.412 315.309 246.294 314.934 246.061 314.663C245.835 314.393 245.478 314.259 244.99 314.262C244.518 314.265 244.151 314.419 243.889 314.724C243.635 315.022 243.501 315.423 243.488 315.927L242.168 315.935C242.187 315.023 242.454 314.325 242.971 313.842C243.496 313.351 244.163 313.103 244.971 313.098C245.843 313.093 246.524 313.328 247.015 313.805C247.514 314.282 247.766 314.921 247.771 315.721C247.775 316.297 247.63 316.854 247.337 317.392C247.052 317.921 246.707 318.399 246.302 318.826C245.904 319.244 245.395 319.731 244.775 320.287L244.238 320.77L248.042 320.747L248.049 321.887L242.217 321.923L242.211 320.927L243.07 320.178Z" fill="#D9D9D9"/>
<path d="M182.544 166.546C183.308 165.878 183.908 165.33 184.346 164.903C184.791 164.469 185.16 164.018 185.454 163.553C185.747 163.087 185.892 162.622 185.889 162.158C185.886 161.678 185.768 161.303 185.534 161.032C185.309 160.761 184.952 160.628 184.464 160.631C183.992 160.633 183.625 160.788 183.363 161.093C183.108 161.391 182.975 161.792 182.962 162.296L181.642 162.304C181.66 161.392 181.928 160.694 182.445 160.211C182.97 159.72 183.637 159.472 184.445 159.467C185.317 159.461 185.998 159.697 186.489 160.174C186.988 160.651 187.24 161.29 187.245 162.09C187.248 162.666 187.104 163.222 186.811 163.76C186.526 164.29 186.181 164.768 185.776 165.195C185.378 165.613 184.869 166.1 184.249 166.656L183.711 167.139L187.515 167.116L187.522 168.256L181.69 168.292L181.684 167.296L182.544 166.546ZM188.697 163.881C188.689 162.497 188.914 161.415 189.374 160.637C189.841 159.85 190.647 159.453 191.791 159.446C192.935 159.439 193.741 159.826 194.21 160.607C194.686 161.38 194.929 162.459 194.937 163.843C194.946 165.243 194.717 166.34 194.249 167.135C193.79 167.922 192.989 168.319 191.845 168.326C190.701 168.333 189.89 167.946 189.414 167.164C188.945 166.375 188.706 165.281 188.697 163.881ZM193.593 163.851C193.589 163.203 193.542 162.655 193.451 162.208C193.369 161.76 193.198 161.397 192.941 161.119C192.683 160.832 192.302 160.691 191.798 160.694C191.294 160.697 190.915 160.843 190.661 161.133C190.407 161.414 190.237 161.779 190.151 162.228C190.074 162.676 190.038 163.225 190.041 163.873C190.046 164.545 190.089 165.108 190.172 165.564C190.255 166.019 190.425 166.386 190.682 166.665C190.948 166.943 191.333 167.081 191.837 167.078C192.341 167.075 192.72 166.932 192.974 166.651C193.237 166.369 193.406 166 193.484 165.544C193.561 165.087 193.598 164.523 193.593 163.851ZM196.187 160.823L196.179 159.575L198.675 159.56L198.728 168.308L197.348 168.316L197.302 160.816L196.187 160.823ZM200.428 166.473L200.422 165.441L204.419 159.633L206.075 159.623L206.109 165.251L207.225 165.244L207.232 166.432L206.116 166.439L206.127 168.263L204.783 168.271L204.772 166.447L200.428 166.473ZM204.799 161.023L201.993 165.276L204.825 165.259L204.799 161.023ZM216.72 163.278L216.727 164.43L211.795 164.46L211.788 163.308L216.72 163.278ZM222.375 166.304C223.139 165.635 223.74 165.087 224.177 164.661C224.623 164.226 224.992 163.776 225.285 163.31C225.578 162.844 225.723 162.379 225.72 161.915C225.718 161.435 225.599 161.06 225.366 160.789C225.14 160.519 224.783 160.385 224.295 160.388C223.823 160.391 223.456 160.545 223.194 160.851C222.94 161.148 222.806 161.549 222.793 162.053L221.473 162.061C221.492 161.149 221.759 160.451 222.277 159.968C222.802 159.477 223.468 159.229 224.276 159.224C225.148 159.219 225.829 159.454 226.32 159.932C226.819 160.408 227.071 161.047 227.076 161.847C227.08 162.423 226.935 162.98 226.642 163.518C226.357 164.047 226.012 164.525 225.607 164.952C225.21 165.37 224.7 165.857 224.08 166.413L223.543 166.897L227.347 166.873L227.354 168.013L221.522 168.049L221.516 167.053L222.375 166.304ZM228.529 163.638C228.52 162.254 228.746 161.173 229.205 160.394C229.672 159.607 230.478 159.21 231.622 159.203C232.766 159.196 233.572 159.583 234.041 160.364C234.518 161.138 234.76 162.216 234.769 163.6C234.777 165 234.548 166.097 234.081 166.892C233.622 167.679 232.82 168.076 231.676 168.083C230.532 168.09 229.722 167.703 229.245 166.922C228.776 166.133 228.537 165.038 228.529 163.638ZM233.425 163.608C233.421 162.96 233.373 162.413 233.283 161.965C233.2 161.518 233.03 161.155 232.772 160.876C232.514 160.59 232.133 160.448 231.629 160.451C231.125 160.454 230.746 160.601 230.492 160.89C230.238 161.172 230.068 161.537 229.983 161.985C229.905 162.434 229.869 162.982 229.873 163.63C229.877 164.302 229.92 164.866 230.003 165.321C230.086 165.777 230.256 166.144 230.514 166.422C230.779 166.7 231.164 166.838 231.668 166.835C232.172 166.832 232.551 166.69 232.806 166.408C233.068 166.127 233.238 165.757 233.315 165.301C233.392 164.845 233.429 164.28 233.425 163.608ZM236.018 160.58L236.01 159.332L238.506 159.317L238.559 168.065L237.179 168.073L237.134 160.574L236.018 160.58ZM242.128 165.667C242.211 166.067 242.385 166.37 242.65 166.576C242.915 166.783 243.272 166.884 243.72 166.882C244.288 166.878 244.702 166.652 244.964 166.202C245.225 165.752 245.352 164.988 245.346 163.908C245.155 164.181 244.885 164.394 244.533 164.549C244.19 164.695 243.815 164.769 243.407 164.771C242.887 164.775 242.414 164.674 241.989 164.468C241.564 164.255 241.226 163.941 240.975 163.526C240.733 163.104 240.609 162.592 240.606 161.993C240.6 161.113 240.852 160.411 241.361 159.888C241.878 159.357 242.588 159.088 243.492 159.083C244.58 159.076 245.354 159.436 245.815 160.161C246.283 160.878 246.522 161.984 246.531 163.48C246.537 164.512 246.454 165.357 246.282 166.014C246.118 166.671 245.825 167.169 245.403 167.507C244.982 167.846 244.395 168.018 243.643 168.022C242.787 168.027 242.125 167.807 241.659 167.362C241.192 166.917 240.928 166.355 240.868 165.675L242.128 165.667ZM243.64 163.618C244.12 163.615 244.495 163.465 244.765 163.167C245.043 162.861 245.181 162.461 245.178 161.965C245.174 161.413 245.024 160.986 244.726 160.683C244.436 160.373 244.039 160.22 243.535 160.223C243.031 160.226 242.632 160.388 242.338 160.71C242.052 161.024 241.91 161.437 241.914 161.949C241.917 162.437 242.059 162.84 242.341 163.158C242.631 163.468 243.064 163.622 243.64 163.618Z" fill="#D9D9D9"/>
<circle cx="156" cy="141.999" r="6" fill="#56D162"/>
<circle cx="156" cy="218.999" r="6" fill="#56D162"/>
<circle cx="156" cy="294.999" r="6" fill="#56D162"/>
<circle cx="156" cy="371.999" r="6" fill="#D9D9D9"/>
<line x1="156" y1="140.999" x2="156" y2="369.999" stroke="#D9D9D9" stroke-width="2"/>
<line x1="156" y1="136" x2="156" y2="301" stroke="#56D162" stroke-width="2"/>
</svg>
