<svg width="149" height="24" viewBox="0 0 149 24" fill="none" xmlns="http://www.w3.org/2000/svg">
<path d="M3.45508 12.6968L12.8149 16.2793V19.6353L0.87793 14.3677V12.1445L3.45508 12.6968ZM12.8149 9.76562L3.45508 13.4048L0.87793 13.9004V11.6772L12.8149 6.42383V9.76562ZM58.1421 13.619C58.1421 14.199 58.1034 14.721 58.0261 15.185H46.2811C46.3777 16.345 46.7837 17.2537 47.4991 17.911C48.2144 18.5683 49.0941 18.897 50.1381 18.897C51.6461 18.897 52.7191 18.2493 53.3571 16.954H57.7361C57.2721 18.5007 56.3827 19.7767 55.0681 20.782C53.7534 21.768 52.1391 22.261 50.2251 22.261C48.6784 22.261 47.2864 21.9227 46.0491 21.246C44.8311 20.55 43.8741 19.5737 43.1781 18.317C42.5014 17.0603 42.1631 15.6103 42.1631 13.967C42.1631 12.3043 42.5014 10.8447 43.1781 9.588C43.8547 8.33133 44.8021 7.36467 46.0201 6.688C47.2381 6.01133 48.6397 5.673 50.2251 5.673C51.7524 5.673 53.1154 6.00167 54.3141 6.659C55.5321 7.31633 56.4697 8.254 57.1271 9.472C57.8037 10.6707 58.1421 12.053 58.1421 13.619ZM53.9371 12.459C53.9177 11.415 53.5407 10.5837 52.8061 9.965C52.0714 9.327 51.1724 9.008 50.1091 9.008C49.1037 9.008 48.2531 9.31733 47.5571 9.936C46.8804 10.5353 46.4647 11.3763 46.3101 12.459H53.9371ZM65.1655 0.54V22H61.1055V0.54H65.1655ZM73.9038 9.269V17.041C73.9038 17.5823 74.0294 17.9787 74.2808 18.23C74.5514 18.462 74.9961 18.578 75.6148 18.578H77.4998V22H74.9478C71.5258 22 69.8148 20.3373 69.8148 17.012V9.269H67.9008V5.934H69.8148V1.961H73.9038V5.934H77.4998V9.269H73.9038ZM87.5539 22.261C86.0073 22.261 84.6153 21.9227 83.3779 21.246C82.1406 20.55 81.1643 19.5737 80.4489 18.317C79.7529 17.0603 79.4049 15.6103 79.4049 13.967C79.4049 12.3237 79.7626 10.8737 80.4779 9.617C81.2126 8.36033 82.2083 7.39367 83.4649 6.717C84.7216 6.021 86.1233 5.673 87.6699 5.673C89.2166 5.673 90.6183 6.021 91.8749 6.717C93.1316 7.39367 94.1176 8.36033 94.8329 9.617C95.5676 10.8737 95.9349 12.3237 95.9349 13.967C95.9349 15.6103 95.5579 17.0603 94.8039 18.317C94.0693 19.5737 93.0639 20.55 91.7879 21.246C90.5313 21.9227 89.1199 22.261 87.5539 22.261ZM87.5539 18.723C88.2886 18.723 88.9749 18.549 89.6129 18.201C90.2703 17.8337 90.7923 17.2923 91.1789 16.577C91.5656 15.8617 91.7589 14.9917 91.7589 13.967C91.7589 12.4397 91.3529 11.27 90.5409 10.458C89.7483 9.62667 88.7719 9.211 87.6119 9.211C86.4519 9.211 85.4756 9.62667 84.6829 10.458C83.9096 11.27 83.5229 12.4397 83.5229 13.967C83.5229 15.4943 83.8999 16.6737 84.6539 17.505C85.4273 18.317 86.3939 18.723 87.5539 18.723ZM107.816 5.702C109.73 5.702 111.277 6.311 112.456 7.529C113.635 8.72767 114.225 10.4097 114.225 12.575V22H110.165V13.126C110.165 11.85 109.846 10.8737 109.208 10.197C108.57 9.501 107.7 9.153 106.598 9.153C105.477 9.153 104.587 9.501 103.93 10.197C103.292 10.8737 102.973 11.85 102.973 13.126V22H98.9131V5.934H102.973V7.935C103.514 7.239 104.201 6.69767 105.032 6.311C105.883 5.905 106.811 5.702 107.816 5.702ZM133.714 1.38281L125.686 23.77H123.009L131.052 1.38281H133.714ZM145.637 13.2632L136.107 9.70898V6.40967L148.342 11.6631V13.9004L145.637 13.2632ZM136.107 16.3218L145.666 12.6968L148.342 12.1304V14.3535L136.107 19.6211V16.3218Z" fill="#E5E5E5"/>
<path d="M35.4036 22L28.0376 12.981V22H23.9776V1.758H28.0376V10.835L35.4036 1.758H40.3046L31.9526 11.792L40.5366 22H35.4036Z" fill="#5AE5B4"/>
</svg>
